<?xml version="1.0" encoding="UTF-8"?> <svg xmlns="http://www.w3.org/2000/svg" width="104" height="104" viewBox="0 0 104 104" fill="none"><path d="M49.9336 61.3919L50.733 57.7945C51.5991 54.1304 52.7316 50.1998 54.064 46.0694C59.5269 29.2812 69.6531 31.946 72.3179 33.0785C75.8487 34.5441 80.0458 39.8737 76.7814 49.6668L76.2484 51.2657" stroke="#323232" stroke-width="1.5" stroke-miterlimit="10" stroke-linecap="round" stroke-linejoin="round"></path><path d="M56.9287 39.8738L61.5921 41.939" stroke="#323232" stroke-width="1.5" stroke-miterlimit="10" stroke-linecap="round" stroke-linejoin="round"></path><path d="M68.121 55.0632L64.1904 53.4644" stroke="#323232" stroke-width="1.5" stroke-miterlimit="10" stroke-linecap="round" stroke-linejoin="round"></path><path d="M72.1841 33.012C70.3187 32.1459 66.5214 27.8156 68.4534 20.4874C68.7865 19.2883 69.7858 18.289 71.4513 20.0877C73.1168 21.8864 72.1175 18.289 72.1175 18.289C72.1175 18.289 70.5186 12.0267 73.3833 11.1606C75.2486 10.5611 75.8482 12.6263 76.9807 12.8261C78.3797 13.026 78.1799 10.228 81.1778 7.96289C83.7093 6.09754 85.4414 7.49655 85.9078 9.36191C86.1076 10.2946 86.1743 12.0267 85.175 14.3584C84.642 15.6242 85.175 16.4902 86.1743 16.5569C88.2395 16.6235 89.9716 17.9559 86.7072 21.0204C84.5088 23.0856 82.1771 23.4187 82.4436 24.4846C82.6434 25.1508 84.5754 24.7511 84.8419 25.817C85.5747 29.3479 75.4485 34.5442 72.1841 33.012Z" stroke="#323232" stroke-width="1.5" stroke-miterlimit="10" stroke-linecap="round" stroke-linejoin="round"></path><path d="M72.1182 32.9455L78.3138 19.9546" stroke="#323232" stroke-width="1.5" stroke-miterlimit="10" stroke-linecap="round" stroke-linejoin="round"></path><path d="M16.5576 41.2727L12.2939 43.2713" stroke="#323232" stroke-width="1.5" stroke-miterlimit="10" stroke-linecap="round"></path><path d="M92.8375 43.2714L82.3115 38.2083" stroke="#323232" stroke-width="1.5" stroke-miterlimit="10" stroke-linecap="round"></path><path d="M12.2939 63.1241V81.9775L52.5989 101.364L92.8373 81.9775V62.7244" stroke="#323232" stroke-width="1.5" stroke-miterlimit="10"></path><path d="M92.8373 43.2715L52.5989 62.6579V101.364V62.6579L12.2939 43.2715" stroke="#323232" stroke-width="1.5" stroke-miterlimit="10"></path><path d="M92.838 43.2715L99.6998 59.1936L58.662 80.4454L52.5996 62.6579" stroke="#323232" stroke-width="1.5" stroke-miterlimit="10"></path><path d="M52.5992 62.6576L44.2717 78.9129L4.2998 59.1934L12.2942 43.2712" stroke="#323232" stroke-width="1.5" stroke-miterlimit="10"></path><path d="M22.4205 48.0681C21.8876 46.6024 21.5545 45.27 21.4212 44.0709C20.6218 37.5421 25.2852 31.613 31.8139 30.8135C34.079 30.547 36.3441 30.9468 38.2761 31.8128C40.208 30.8801 42.4731 30.4804 44.7382 30.8135C49.2017 31.3465 52.7992 34.3444 54.3981 38.275C54.3981 38.275 55.5306 40.54 55.2641 42.9383" stroke="#323232" stroke-width="1.5" stroke-miterlimit="10" stroke-linecap="round" stroke-linejoin="round"></path><path d="M38.2763 31.8128C38.2763 31.8128 38.2763 26.8163 32.8135 22.9524" stroke="#323232" stroke-width="1.5" stroke-miterlimit="10" stroke-linecap="round" stroke-linejoin="round"></path><path d="M61.9925 33.9446C64.191 29.9474 62.9918 26.4165 62.9918 26.4165C62.0592 24.0182 59.7941 22.1529 57.0627 21.8198C55.6637 21.6199 54.2646 21.8864 53.0655 22.486C51.8663 21.953 50.4673 21.6865 49.0683 21.8198C45.0711 22.2861 42.2065 25.9502 42.6728 30.014C42.6728 30.014 42.7394 30.4803 42.8727 30.6802" stroke="#323232" stroke-width="1.5" stroke-miterlimit="10" stroke-linecap="round" stroke-linejoin="round"></path><path d="M53.0654 22.486C53.0654 22.486 53.0654 19.4215 56.3964 17.0232" stroke="#323232" stroke-width="1.5" stroke-miterlimit="10" stroke-linecap="round" stroke-linejoin="round"></path><path d="M14.4268 12.3596V15.091" stroke="#323232" stroke-width="1.5" stroke-miterlimit="10" stroke-linecap="round" stroke-linejoin="round"></path><path d="M20.7549 18.6885H18.0234" stroke="#323232" stroke-width="1.5" stroke-miterlimit="10" stroke-linecap="round" stroke-linejoin="round"></path><path d="M10.8955 18.6885H8.16406" stroke="#323232" stroke-width="1.5" stroke-miterlimit="10" stroke-linecap="round" stroke-linejoin="round"></path><path d="M14.4268 22.2192V24.9507" stroke="#323232" stroke-width="1.5" stroke-miterlimit="10" stroke-linecap="round" stroke-linejoin="round"></path><path d="M34.1465 2.5V5.23141" stroke="#323232" stroke-width="1.5" stroke-miterlimit="10" stroke-linecap="round" stroke-linejoin="round"></path><path d="M40.4746 8.82886H37.7432" stroke="#323232" stroke-width="1.5" stroke-miterlimit="10" stroke-linecap="round" stroke-linejoin="round"></path><path d="M30.6152 8.82886H27.8838" stroke="#323232" stroke-width="1.5" stroke-miterlimit="10" stroke-linecap="round" stroke-linejoin="round"></path><path d="M34.1465 12.3599V15.0913" stroke="#323232" stroke-width="1.5" stroke-miterlimit="10" stroke-linecap="round" stroke-linejoin="round"></path></svg> 