<?xml version="1.0" encoding="UTF-8"?> <svg xmlns="http://www.w3.org/2000/svg" width="104" height="104" viewBox="0 0 104 104" fill="none"><path d="M62.0967 70.0001C62.0967 70.0001 59.8342 69.3619 55.4832 69.0718C49.7399 68.7238 45.0408 74.9892 53.2787 77.0777C65.5775 80.2104 74.8016 85.3735 77.5862 87.462C78.2243 87.9261 79.0945 87.9261 79.7327 87.462L98.2389 74.235C98.993 73.6549 99.2251 72.6106 98.761 71.7985C94.9901 65.6491 93.6558 59.1516 91.2193 55.0327C88.6667 50.5657 86.3462 48.0131 84.4898 47.839C84.4898 47.839 80.6029 47.2009 79.3846 51.6099" stroke="#323232" stroke-width="1.5" stroke-miterlimit="10" stroke-linecap="round"></path><path d="M63.1994 71.5663L46.0856 47.6069C46.0856 47.6069 44.4612 44.3581 47.4199 42.3277C50.4365 40.2972 52.8731 42.9658 52.8731 42.9658L66.0421 61.588" stroke="#323232" stroke-width="1.5" stroke-miterlimit="10" stroke-linecap="round"></path><path d="M75.3821 60.1958C75.3821 60.1958 70.9731 53.9303 70.2769 52.9441C69.6388 51.9579 68.6526 50.9717 67.2023 51.0877C67.2023 51.0877 62.5032 51.2617 61.749 55.4967" stroke="#323232" stroke-width="1.5" stroke-miterlimit="10" stroke-linecap="round"></path><path d="M83.6191 58.3973C83.6191 58.3973 80.7765 53.8723 79.2101 51.2617C77.6438 48.6511 75.4393 49.1732 75.4393 49.1732C75.4393 49.1732 71.1463 49.7534 70.7402 53.5822" stroke="#323232" stroke-width="1.5" stroke-miterlimit="10" stroke-linecap="round"></path><path d="M42.9523 72.5525H11.2771C7.79635 72.5525 5.01172 69.7679 5.01172 66.2871V22.2552C5.01172 18.7744 7.79635 15.9897 11.2771 15.9897H86.9262C90.407 15.9897 93.1916 18.7744 93.1916 22.2552V47.6649" stroke="#323232" stroke-width="1.5" stroke-miterlimit="10" stroke-linecap="round" stroke-linejoin="round"></path><path d="M40.9216 50.2176C38.9492 46.3308 39.4133 40.7615 44.1703 37.5128C45.9107 36.3525 47.7672 35.7144 49.7396 35.7144C52.9883 35.7144 55.715 37.3967 57.1653 38.9631" stroke="#323232" stroke-width="1.5" stroke-miterlimit="10" stroke-linecap="round" stroke-linejoin="round"></path></svg> 