<?xml version="1.0" encoding="UTF-8"?> <svg xmlns="http://www.w3.org/2000/svg" width="184" height="184" viewBox="0 0 184 184" fill="none"><path d="M64.7461 177H119.256" stroke="#323232" stroke-width="1.5" stroke-miterlimit="10" stroke-linecap="round"></path><path d="M85.0742 134.777V177" stroke="#323232" stroke-width="1.5" stroke-miterlimit="10"></path><path d="M99.0352 134.777V177" stroke="#323232" stroke-width="1.5" stroke-miterlimit="10"></path><path d="M91.9986 135.335C92.6688 135.335 93.339 135.335 93.8975 135.335C123.945 134.106 143.939 103.5 134.11 75.0162L120.259 35.0273H91.9986H63.85L49.8875 75.0162C39.9461 103.5 59.9405 134.106 90.0997 135.335C90.7699 135.335 91.4401 135.335 91.9986 135.335Z" stroke="#323232" stroke-width="1.5" stroke-miterlimit="10" stroke-linejoin="round"></path><path d="M76.1371 117.574C72.3393 115.34 68.9883 112.213 66.4192 108.303C61.9512 101.713 60.0523 93.8939 60.9459 86.1865" stroke="#323232" stroke-width="1.5" stroke-miterlimit="10" stroke-linecap="round" stroke-linejoin="round"></path><path d="M50.8906 72.1094H133.102" stroke="#323232" stroke-width="1.5" stroke-miterlimit="10" stroke-linecap="round" stroke-linejoin="round"></path><path d="M100.375 72.1113L117.689 7.10156H149.97" stroke="#323232" stroke-width="1.5" stroke-miterlimit="10" stroke-linecap="round" stroke-linejoin="round"></path><path d="M54.6931 61.2764C43.8581 57.4786 36.0391 47.2021 36.0391 34.915C36.0391 19.612 48.4378 7.10156 63.8525 7.10156C79.2672 7.10156 91.666 19.612 91.666 34.915" stroke="#323232" stroke-width="1.5" stroke-miterlimit="10"></path><path d="M63.8516 35.0267V7.10156" stroke="#323232" stroke-width="1.5" stroke-miterlimit="10"></path><path d="M63.853 35.0288L44.082 15.2578" stroke="#323232" stroke-width="1.5" stroke-miterlimit="10"></path><path d="M63.8509 35.0269H35.9258" stroke="#323232" stroke-width="1.5" stroke-miterlimit="10"></path><path d="M63.853 35.0273L44.082 54.6867" stroke="#323232" stroke-width="1.5" stroke-miterlimit="10"></path><path d="M63.8516 35.0288L83.6226 15.2578" stroke="#323232" stroke-width="1.5" stroke-miterlimit="10"></path></svg> 