<svg width="1259" height="591" viewBox="0 0 1259 591" fill="none" xmlns="http://www.w3.org/2000/svg">
<path d="M162 524V530" stroke="#323232" stroke-width="1.5" stroke-miterlimit="10" stroke-linecap="round" stroke-linejoin="round"/>
<path d="M162 542.1V548.1" stroke="#323232" stroke-width="1.5" stroke-miterlimit="10" stroke-linecap="round" stroke-linejoin="round"/>
<path d="M156 536H150" stroke="#323232" stroke-width="1.5" stroke-miterlimit="10" stroke-linecap="round" stroke-linejoin="round"/>
<path d="M174.1 536H168.1" stroke="#323232" stroke-width="1.5" stroke-miterlimit="10" stroke-linecap="round" stroke-linejoin="round"/>
<path d="M1066 448V454" stroke="#323232" stroke-width="1.5" stroke-miterlimit="10" stroke-linecap="round" stroke-linejoin="round"/>
<path d="M1066 466.1V472.1" stroke="#323232" stroke-width="1.5" stroke-miterlimit="10" stroke-linecap="round" stroke-linejoin="round"/>
<path d="M1060 460H1054" stroke="#323232" stroke-width="1.5" stroke-miterlimit="10" stroke-linecap="round" stroke-linejoin="round"/>
<path d="M1078.1 460H1072.1" stroke="#323232" stroke-width="1.5" stroke-miterlimit="10" stroke-linecap="round" stroke-linejoin="round"/>
<path d="M886 13V19" stroke="#323232" stroke-width="1.5" stroke-miterlimit="10" stroke-linecap="round" stroke-linejoin="round"/>
<path d="M886 31.1V37.1" stroke="#323232" stroke-width="1.5" stroke-miterlimit="10" stroke-linecap="round" stroke-linejoin="round"/>
<path d="M880 25H874" stroke="#323232" stroke-width="1.5" stroke-miterlimit="10" stroke-linecap="round" stroke-linejoin="round"/>
<path d="M898.1 25H892.1" stroke="#323232" stroke-width="1.5" stroke-miterlimit="10" stroke-linecap="round" stroke-linejoin="round"/>
<path d="M246 126V132" stroke="#323232" stroke-width="1.5" stroke-miterlimit="10" stroke-linecap="round" stroke-linejoin="round"/>
<path d="M246 144.1V150.1" stroke="#323232" stroke-width="1.5" stroke-miterlimit="10" stroke-linecap="round" stroke-linejoin="round"/>
<path d="M240 138H234" stroke="#323232" stroke-width="1.5" stroke-miterlimit="10" stroke-linecap="round" stroke-linejoin="round"/>
<path d="M258.1 138H252.1" stroke="#323232" stroke-width="1.5" stroke-miterlimit="10" stroke-linecap="round" stroke-linejoin="round"/>
<path d="M104 564V570" stroke="#323232" stroke-width="1.5" stroke-miterlimit="10" stroke-linecap="round" stroke-linejoin="round"/>
<path d="M104 582.1V588.1" stroke="#323232" stroke-width="1.5" stroke-miterlimit="10" stroke-linecap="round" stroke-linejoin="round"/>
<path d="M98 576H92" stroke="#323232" stroke-width="1.5" stroke-miterlimit="10" stroke-linecap="round" stroke-linejoin="round"/>
<path d="M116.1 576H110.1" stroke="#323232" stroke-width="1.5" stroke-miterlimit="10" stroke-linecap="round" stroke-linejoin="round"/>
<g clip-path="url(#clip0_425_6711)">
<path d="M56.8429 47.3284C47.9927 41.2519 40.6909 31.4307 38.3084 19.1681C36.685 10.7203 38.9171 5.4451 42.0663 1.78823C47.0735 -3.96578 56.1343 -1.38867 57.9273 4.76318C59.656 10.6054 52.4758 14.2911 46.1663 14.8573C36.8949 15.7795 28.5645 11.2746 24.1599 7.63463C18.7213 3.36947 14.8837 -4.23138 13.6338 -7.29857C10.8068 -14.0756 9.76788 -25.7773 11.1298 -34.7798" stroke="#323232" stroke-width="1.5" stroke-linecap="round" stroke-linejoin="round"/>
</g>
<g clip-path="url(#clip1_425_6711)">
<path d="M1180.2 413.758C1184.15 403.778 1192.1 394.474 1203.53 389.423C1211.4 385.961 1217.04 386.964 1221.31 389.221C1228.03 392.822 1227.53 402.229 1221.93 405.346C1216.62 408.331 1211.43 402.151 1209.48 396.125C1206.52 387.291 1209.05 378.167 1211.62 373.063C1214.57 366.812 1221.13 361.38 1223.84 359.479C1229.82 355.215 1241 351.599 1250.08 350.924" stroke="#323232" stroke-width="1.5" stroke-linecap="round" stroke-linejoin="round"/>
</g>
<defs>
<clipPath id="clip0_425_6711">
<rect width="80.2" height="59" fill="white" transform="translate(0 42.6499) rotate(-83.2853)"/>
</clipPath>
<clipPath id="clip1_425_6711">
<rect width="80.2" height="59" fill="white" transform="translate(1172.11 357.299) rotate(-6.13905)"/>
</clipPath>
</defs>
</svg>
