<?xml version="1.0" encoding="UTF-8"?> <svg xmlns="http://www.w3.org/2000/svg" width="112" height="112" viewBox="0 0 112 112" fill="none"><path d="M83.6129 30.5229C83.6129 30.5229 83.447 2.0083 54.9408 2C29.7696 2 28.1353 30.5229 28.1353 30.5229" stroke="#323232" stroke-width="1.5" stroke-linecap="round" stroke-linejoin="round"></path><path d="M33.6441 13.4574C33.6441 13.4574 10.4143 9.22626 4.10081 30.523C-1.77301 50.3845 17.7732 61.6011 17.7732 61.6011V99.5154C17.7732 99.5154 17.0514 108.982 25.6548 109.687C34.2581 110.392 85.6788 109.687 85.6788 109.687C87.8925 109.128 89.8643 107.864 91.2966 106.086C92.7289 104.308 93.5438 102.113 93.6184 99.8307C94.2407 91.4348 93.6184 61.6011 93.6184 61.6011C93.6184 61.6011 110.294 51.6455 108.303 34.1734C106.262 16.2615 91.5775 11.5575 78.3614 13.3164" stroke="#323232" stroke-width="1.5" stroke-linecap="round" stroke-linejoin="round"></path><path d="M67.2776 87.8674H93.8923" stroke="#323232" stroke-width="1.5" stroke-linecap="round" stroke-linejoin="round"></path><path d="M37.6675 87.8673H67.2772" stroke="#323232" stroke-width="1.5" stroke-linecap="round" stroke-linejoin="round"></path><path d="M17.7815 87.8673H37.6678" stroke="#323232" stroke-width="1.5" stroke-linecap="round" stroke-linejoin="round"></path><path d="M28.9238 52.118C28.9238 52.118 29.994 62.2562 36.7887 68.2794" stroke="#323232" stroke-width="1.5" stroke-linecap="round" stroke-linejoin="round"></path><path d="M82.7835 52.1179C81.5638 58.139 78.7469 63.7211 74.6282 68.2792" stroke="#323232" stroke-width="1.5" stroke-linecap="round" stroke-linejoin="round"></path><path d="M55.6628 52.2178V68.2795" stroke="#323232" stroke-width="1.5" stroke-linecap="round" stroke-linejoin="round"></path></svg> 