<?xml version="1.0" encoding="UTF-8"?> <svg xmlns="http://www.w3.org/2000/svg" width="102" height="104" viewBox="0 0 102 104" fill="none"><path fill-rule="evenodd" clip-rule="evenodd" d="M101.519 17.6628C101.65 17.7429 101.755 17.8602 101.82 17.9999C101.873 18.1394 101.884 18.2911 101.852 18.4366C101.82 18.5822 101.747 18.7153 101.64 18.8199L90.1805 29.7199L100.83 34.7899C100.954 34.8506 101.059 34.9444 101.133 35.0608C101.207 35.1773 101.248 35.3119 101.25 35.4499C101.257 35.5886 101.224 35.7263 101.154 35.8467C101.085 35.9672 100.983 36.0654 100.86 36.1299L88.9305 42.5399C88.8192 42.5977 88.6959 42.6286 88.5705 42.6299C88.4041 42.6286 88.2428 42.5719 88.1122 42.4688C87.9815 42.3657 87.8888 42.2221 87.8487 42.0606C87.8086 41.8991 87.8234 41.7289 87.8907 41.5767C87.958 41.4245 88.074 41.299 88.2205 41.2199L98.8505 35.5099L88.5505 30.6099C88.4417 30.5558 88.347 30.4769 88.2741 30.3797C88.2012 30.2825 88.152 30.1695 88.1305 30.0499C88.1115 29.928 88.1226 29.8032 88.1626 29.6865C88.2027 29.5697 88.2706 29.4645 88.3605 29.3799L99.1205 19.0999L83.3405 20.0999C83.2221 20.107 83.1037 20.0859 82.9951 20.0384C82.8864 19.9909 82.7906 19.9183 82.7155 19.8265C82.6403 19.7348 82.588 19.6265 82.5628 19.5107C82.5376 19.3948 82.5402 19.2746 82.5705 19.1599L86.6805 3.57992L70.7505 15.2099C70.6499 15.2845 70.5322 15.3328 70.4082 15.3503C70.2842 15.3677 70.1578 15.3539 70.0405 15.3099C69.9244 15.269 69.821 15.1986 69.7404 15.1057C69.6598 15.0128 69.6047 14.9005 69.5805 14.7799L67.1405 4.38992L60.6605 11.3099C60.5215 11.4268 60.3448 11.4893 60.1633 11.4858C59.9817 11.4823 59.8076 11.413 59.6732 11.2909C59.5389 11.1687 59.4534 11.002 59.4326 10.8216C59.4119 10.6412 59.4573 10.4594 59.5605 10.3099L67.0005 2.36992C67.0955 2.27141 67.2151 2.20002 67.347 2.1631C67.4788 2.12619 67.6181 2.12509 67.7505 2.15992C67.8805 2.19474 67.9985 2.26434 68.0919 2.36126C68.1853 2.45817 68.2505 2.57872 68.2805 2.70992L70.7805 13.3599L87.5105 1.10992C87.6359 1.02033 87.7863 0.972168 87.9405 0.972168C88.0947 0.972168 88.245 1.02033 88.3705 1.10992C88.4997 1.1962 88.5989 1.32047 88.6544 1.46557C88.71 1.61067 88.7191 1.76943 88.6805 1.91992L84.2805 18.5499L101.08 17.5499C101.234 17.5434 101.387 17.5827 101.519 17.6628ZM78.3397 39.65C78.4388 39.7125 78.5212 39.7983 78.5797 39.9C78.6307 40.0102 78.6612 40.1288 78.6697 40.25V83C78.6688 83.1384 78.6302 83.274 78.558 83.392C78.4857 83.5101 78.3826 83.6062 78.2597 83.67L39.6597 103C39.565 103.042 39.4632 103.066 39.3597 103.07C39.2558 103.068 39.1536 103.044 39.0597 103L0.599688 83.67C0.474222 83.6085 0.368422 83.5132 0.294214 83.3948C0.220006 83.2764 0.18034 83.1397 0.179688 83V40.19C0.189365 40.0722 0.219836 39.9571 0.269688 39.85C0.32814 39.7483 0.410526 39.6625 0.509688 39.6L39.0397 18.51C39.1488 18.4458 39.2731 18.4119 39.3997 18.4119C39.5263 18.4119 39.6506 18.4458 39.7597 18.51L78.3397 39.65ZM57.0497 49.86L20.9997 30.11L2.48969 40.22L39.3997 58.7L57.0497 49.86ZM76.2997 40.2L39.3997 20L22.5297 29.25L58.6797 49L76.2997 40.2ZM38.6497 60L1.61969 41.47L1.64969 82.53L38.6497 101.06V60ZM40.1497 60V101.06L77.1497 82.53V41.47L40.1497 60Z" fill="#323232"></path></svg> 