<?xml version="1.0" encoding="UTF-8"?> <svg xmlns="http://www.w3.org/2000/svg" width="104" height="104" viewBox="0 0 104 104" fill="none"><path d="M53.2518 87.2501C47.4657 87.2706 41.7442 86.0355 36.4818 83.6301C30.4319 80.9393 25.3707 76.4303 22.0018 70.7301C21.9575 70.6369 21.8945 70.5539 21.8167 70.4861C21.7389 70.4183 21.6479 70.3674 21.5495 70.3364C21.4511 70.3054 21.3473 70.295 21.2447 70.306C21.1421 70.3169 21.0429 70.3489 20.9532 70.4C20.8635 70.451 20.7853 70.52 20.7236 70.6026C20.6618 70.6853 20.6177 70.7798 20.5941 70.8802C20.5705 70.9807 20.5679 71.0849 20.5864 71.1864C20.6049 71.2879 20.6442 71.3845 20.7018 71.4701C24.2221 77.4457 29.5178 82.1751 35.8518 85.0001C41.3117 87.4967 47.2481 88.7795 53.2518 88.7601C53.4507 88.7601 53.6414 88.6811 53.7821 88.5405C53.9227 88.3998 54.0018 88.2091 54.0018 88.0101C54.0018 87.8112 53.9227 87.6205 53.7821 87.4798C53.6414 87.3392 53.4507 87.2601 53.2518 87.2601V87.2501Z" fill="#323232"></path><path fill-rule="evenodd" clip-rule="evenodd" d="M53.5095 28.64C53.3512 28.6445 53.1961 28.5951 53.0695 28.5C50.3195 26.5201 50.1295 22.58 51.1495 19.5201C51.6793 18.0883 52.3213 16.7007 53.0695 15.37C53.7741 14.1334 54.3794 12.8426 54.8795 11.51C55.9787 8.29528 55.8215 4.78375 54.4395 1.68005C54.3602 1.49783 54.3545 1.29202 54.4234 1.10565C54.4924 0.919275 54.6307 0.766779 54.8095 0.68005C54.9926 0.598805 55.2004 0.593149 55.3877 0.664311C55.575 0.735473 55.7266 0.877697 55.8095 1.06005C57.349 4.51337 57.5276 8.42069 56.3095 12C55.7858 13.4342 55.1505 14.8251 54.4095 16.16C53.6902 17.4163 53.0781 18.731 52.5795 20.09C51.7595 22.5 51.8295 25.8 53.9495 27.33C54.0983 27.4452 54.1977 27.6126 54.2274 27.7984C54.2571 27.9841 54.215 28.1743 54.1095 28.33C54.0431 28.4275 53.9535 28.5068 53.8487 28.561C53.744 28.6151 53.6274 28.6423 53.5095 28.64ZM38.4901 28.4201C38.6167 28.5152 38.7718 28.5645 38.93 28.5601C39.0479 28.5623 39.1645 28.5351 39.2693 28.481C39.374 28.4269 39.4636 28.3475 39.53 28.2501C39.6355 28.0943 39.6776 27.9042 39.6479 27.7184C39.6182 27.5327 39.5188 27.3652 39.37 27.2501C37.9 26.1801 37.85 23.8601 38.43 22.1601C38.8003 21.1728 39.2484 20.2164 39.7701 19.3001C40.3137 18.3378 40.7817 17.3348 41.17 16.3001C42.0866 13.6249 41.9544 10.7016 40.8 8.12007C40.7679 8.01949 40.7149 7.92683 40.6445 7.84815C40.5741 7.76947 40.4878 7.70655 40.3914 7.6635C40.295 7.62045 40.1906 7.59824 40.085 7.59833C39.9794 7.59842 39.875 7.6208 39.7787 7.66401C39.6824 7.70722 39.5962 7.77029 39.5259 7.84909C39.4556 7.92788 39.4028 8.02063 39.3708 8.12127C39.3389 8.2219 39.3285 8.32815 39.3404 8.43306C39.3524 8.53797 39.3863 8.63919 39.44 8.73007C40.433 10.9659 40.5472 13.4938 39.76 15.8101C39.3903 16.7782 38.9491 17.7174 38.44 18.6201C37.883 19.5847 37.4016 20.591 37.0001 21.6301C36.2401 23.9201 36.3901 26.9001 38.4901 28.4201ZM66.7798 28.6201C66.9092 28.7095 67.0624 28.7582 67.2198 28.76C67.3385 28.7589 67.4553 28.7303 67.5611 28.6765C67.6669 28.6228 67.7589 28.5452 67.8298 28.4501C67.8878 28.37 67.9295 28.2794 67.9524 28.1832C67.9753 28.087 67.9789 27.9873 67.9631 27.8897C67.9473 27.7921 67.9124 27.6986 67.8603 27.6146C67.8083 27.5306 67.7401 27.4576 67.6598 27.4C66.3298 26.4 66.2898 24.33 66.8198 22.7701C67.141 21.8628 67.5356 20.9832 67.9998 20.14C68.5102 19.2465 68.9482 18.3135 69.3098 17.35C70.1698 14.8685 70.059 12.1534 68.9998 9.75005C68.9648 9.65229 68.91 9.56284 68.8386 9.48738C68.7673 9.41192 68.6811 9.35209 68.5855 9.31167C68.4899 9.27125 68.3869 9.25113 68.2831 9.25257C68.1793 9.25402 68.0769 9.27701 67.9824 9.32007C67.888 9.36314 67.8035 9.42535 67.7343 9.50277C67.6651 9.58018 67.6128 9.67112 67.5805 9.76982C67.5483 9.86852 67.537 9.97283 67.5472 10.0762C67.5573 10.1795 67.5889 10.2795 67.6398 10.37C68.553 12.4155 68.6567 14.7312 67.9298 16.85C67.5947 17.7436 67.1901 18.6096 66.7198 19.4401C66.2019 20.352 65.7604 21.3052 65.3998 22.2901C64.6798 24.4201 64.8198 27.2001 66.7798 28.6201ZM9.69959 49.1101C9.84481 48.9921 9.94071 48.8242 9.96846 48.6391C9.99621 48.4541 9.95382 48.2654 9.84959 48.1101C7.99959 45.5401 7.57959 42.2101 8.90959 40.0001C9.3654 39.2195 10.054 38.6012 10.879 38.2318C11.7039 37.8624 12.6238 37.7603 13.5096 37.9401C18.9596 38.6601 20.9296 39.1101 24.5796 40.5101C32.3208 43.4567 34.9536 45.6052 37.0724 47.3342L37.0796 47.3401C37.1497 47.3972 37.2191 47.4541 37.288 47.5105L37.2882 47.5106C37.5928 47.7601 37.8879 48.0017 38.1896 48.2301C40.7396 50.2301 41.5196 51.9201 40.7396 53.8701C40.5342 54.3921 40.2267 54.8679 39.8352 55.2697C39.4437 55.6714 38.9761 55.9911 38.4596 56.2101C37.4423 56.6474 36.295 56.6725 35.2596 56.2801C34.3496 55.6401 23.9996 49.0501 15.9996 45.8501C15.8139 45.7758 15.6064 45.7783 15.4226 45.8571C15.2388 45.9359 15.0939 46.0844 15.0196 46.2701C14.9453 46.4557 14.9479 46.6633 15.0266 46.847C15.1054 47.0308 15.2539 47.1758 15.4396 47.2501C23.6396 50.5201 34.3896 57.4601 34.4396 57.5301L34.5696 57.5901C35.9901 58.1558 37.5769 58.1357 38.9826 57.534C40.3882 56.9324 41.4983 55.7983 42.0696 54.3801C42.4088 53.5582 42.5227 52.6606 42.3996 51.7801L43.6696 52.5801C45.0749 53.5397 46.5566 54.3825 48.0996 55.1001C48.8548 55.3969 49.6581 55.5528 50.4696 55.5601C51.2518 55.5644 52.0249 55.3922 52.7313 55.0563C53.4377 54.7204 54.0592 54.2295 54.5496 53.6201C57.628 54.711 60.7879 55.5569 63.9996 56.1501C68.6155 57.0169 73.303 57.4455 77.9996 57.4301C85.3296 57.4301 91.9996 56.3401 92.6296 53.4301C93.2596 50.3501 89.6296 46.8401 83.1196 44.2101C82.8272 43.0285 82.1564 41.975 81.2096 41.2101C79.5276 39.8146 77.5406 38.8349 75.4096 38.3501C70.4096 37.1201 65.9696 38.3501 65.2396 41.1101C59.8996 41.3001 54.8396 42.2901 51.7296 43.7401C49.4696 42.1601 45.6596 40.0301 36.9696 36.5601C27.4496 32.7601 23.3696 31.7601 20.1796 31.4401C17.3296 31.1501 14.2396 31.3201 12.8896 34.7101C12.6861 35.2158 12.5548 35.7477 12.4996 36.2901C11.5002 36.3002 10.5212 36.5747 9.66231 37.0859C8.8034 37.597 8.09516 38.3264 7.60959 39.2001C5.99959 42.0001 6.38959 45.9201 8.64959 49.0001C8.77478 49.1531 8.95532 49.2505 9.15196 49.2711C9.34859 49.2917 9.54541 49.2338 9.69959 49.1101ZM91.1096 53.1101C90.5196 56.0001 75.2196 56.8701 64.2696 54.6301C61.2727 54.0639 58.3214 53.2785 55.4396 52.2801C55.4629 52.23 55.4874 52.1811 55.5118 52.1323C55.5607 52.0345 55.6096 51.9367 55.6496 51.8301C56.6496 49.3501 55.7696 47.0401 53.0296 44.8301C56.9362 43.4685 61.0334 42.7327 65.1696 42.6501C65.4711 43.8005 66.1335 44.8239 67.0596 45.5701C68.3537 46.7159 70.2722 47.1885 72.3141 47.6915L72.3896 47.7101L73.6296 48.0201C75.0384 48.4396 76.4918 48.6914 77.9596 48.7701C78.4277 48.7729 78.8944 48.7192 79.3496 48.6101C81.2896 48.1401 82.5596 47.1501 82.9796 45.8201C88.3196 48.0701 91.5596 51.0001 91.1096 53.1601V53.1101ZM66.6296 41.5701C66.9396 40.3501 68.8696 39.4301 71.6296 39.4301C72.7765 39.4392 73.9181 39.5869 75.0296 39.8701C76.9319 40.2922 78.7071 41.1593 80.2096 42.4001C81.3196 43.4001 81.8396 44.4001 81.6296 45.2801C81.4196 46.1601 80.4396 46.8101 78.9996 47.1601C77.678 47.4813 76.2554 47.1287 74.4844 46.6898C74.3257 46.6504 74.1641 46.6104 73.9996 46.5701L72.7496 46.2601C70.7496 45.7801 69.0996 45.3701 68.0596 44.4501C67.0196 43.5301 66.4196 42.4201 66.6296 41.5701ZM14.2296 35.3201C14.9996 33.2901 16.5996 32.6601 19.9996 33.0001C23.0696 33.3101 26.9996 34.2801 36.3896 38.0001C46.2096 42.0001 49.6396 44.1001 51.6996 45.6801C54.2496 47.6801 55.0396 49.3701 54.2596 51.3201C54.0848 51.8652 53.7951 52.3665 53.4099 52.79C53.0248 53.2135 52.5532 53.5494 52.0271 53.7751C51.5009 54.0007 50.9325 54.1107 50.3602 54.0978C49.7879 54.0849 49.225 53.9492 48.7096 53.7001C47.2618 53.0148 45.8708 52.2156 44.5496 51.3101L44.0928 51.0265L44.0913 51.0255C43.2682 50.5147 42.3912 49.9703 41.5496 49.4401C40.8651 48.504 40.0385 47.6807 39.0996 47.0001L37.9996 46.1301C35.7996 44.3301 33.0596 42.1301 25.0896 39.0501C21.5293 37.6782 17.798 36.8001 13.9996 36.4401C14.0222 36.0576 14.0997 35.6805 14.2296 35.3201ZM97.3127 58.0931C97.3503 58.184 97.3698 58.2816 97.3698 58.3801C97.3808 58.463 97.3875 58.5464 97.3897 58.6301C97.2897 72.7301 88.3698 85.5901 74.0498 92.2501C73.577 92.4731 73.0962 92.6722 72.6217 92.8688C72.5643 92.8926 72.507 92.9163 72.4497 92.9401V99.0601C72.4822 99.9321 72.168 100.782 71.5758 101.422C70.9836 102.063 70.1616 102.444 69.2897 102.48H37.2897C36.4187 102.444 35.5977 102.063 35.0071 101.422C34.4165 100.781 34.1045 99.9311 34.1397 99.0601V92.9401C33.982 92.8729 33.8242 92.8065 33.6666 92.7403C33.285 92.5798 32.9049 92.4199 32.5297 92.2501C18.4097 85.6901 9.54975 73.0801 9.20975 59.2001C9.06029 58.8382 9.06029 58.4319 9.20975 58.0701C9.28154 57.9157 9.40371 57.7904 9.55617 57.7147C9.70863 57.639 9.88231 57.6174 10.0487 57.6534C10.215 57.6895 10.3642 57.7811 10.4716 57.9131C10.579 58.0452 10.6383 58.2098 10.6397 58.3801V58.8701C12.0297 60.7101 28.3397 63.8701 53.2497 63.8701C81.2298 63.8701 95.8698 60.2901 95.8698 58.3801C95.8698 58.2816 95.8892 58.184 95.9268 58.0931C95.9645 58.0021 96.0198 57.9194 96.0894 57.8497C96.1591 57.7801 96.2417 57.7248 96.3327 57.6872C96.4237 57.6495 96.5213 57.6301 96.6198 57.6301C96.7182 57.6301 96.8158 57.6495 96.9068 57.6872C96.9978 57.7248 97.0804 57.7801 97.1501 57.8497C97.2197 57.9194 97.275 58.0021 97.3127 58.0931ZM70.4901 100.373C70.8012 100.009 70.9557 99.5372 70.9197 99.0601L70.9497 93.5401C59.561 97.8336 46.9985 97.8336 35.6097 93.5401V99.0801C35.5766 99.5529 35.7313 100.02 36.0402 100.379C36.3491 100.739 36.7873 100.962 37.2597 101H69.2598C69.7367 100.962 70.179 100.736 70.4901 100.373ZM53.2397 95.2605C60.1884 95.2605 67.0561 93.7702 73.3797 90.8901C86.5397 84.7801 94.9997 73.2601 95.7697 60.4801C94.1297 61.4501 90.7998 62.5301 83.9997 63.5301C73.8034 64.8405 63.5296 65.4553 53.2497 65.3701C35.9697 65.3701 16.3297 63.5801 10.7097 60.6301C11.5997 73.3501 19.9997 84.8001 33.0997 90.8901C39.4234 93.7702 46.2911 95.2605 53.2397 95.2605Z" fill="#323232"></path></svg> 