<?xml version="1.0" encoding="UTF-8"?> <svg xmlns="http://www.w3.org/2000/svg" width="104" height="96" viewBox="0 0 104 96" fill="none"><path fill-rule="evenodd" clip-rule="evenodd" d="M102.289 36.85C102.258 36.7283 102.198 36.6158 102.114 36.5219C102.031 36.428 101.926 36.3553 101.809 36.31C101.809 36.31 98.999 35.16 98.429 26.79C98.4229 26.689 98.3962 26.5903 98.3505 26.5001C98.3049 26.4099 98.2412 26.3299 98.1634 26.2653C98.0856 26.2006 97.9954 26.1526 97.8983 26.1241C97.8012 26.0957 97.6994 26.0875 97.599 26.1L93.479 26.57C93.2777 26.5966 93.0948 26.7006 92.969 26.86C92.9057 26.9393 92.8597 27.031 92.8339 27.1292C92.8081 27.2273 92.803 27.3298 92.819 27.43C92.819 27.4335 92.8212 27.4516 92.825 27.4834L92.8251 27.4839C92.9093 28.1837 93.7787 35.4068 89.629 37.3C89.527 37.348 89.4367 37.4176 89.3641 37.5039C89.2916 37.5902 89.2387 37.6912 89.209 37.8C88.0103 41.6619 86.3305 45.3576 84.209 48.8C83.4853 47.5852 82.6731 46.4254 81.779 45.33C78.6518 41.468 77.0474 36.5944 77.269 31.63V30.63C77.279 19 69.779 9.42997 60.419 8.99997C60.3982 7.44895 60.8634 5.93032 61.7493 4.65704C62.6353 3.38376 63.8975 2.41967 65.359 1.89997C65.4509 1.86452 65.535 1.8113 65.6063 1.74336C65.6777 1.67543 65.7349 1.5941 65.7749 1.50403C65.8148 1.41396 65.8366 1.3169 65.839 1.2184C65.8414 1.11991 65.8244 1.0219 65.789 0.929974C65.7535 0.838048 65.7003 0.754007 65.6324 0.682648C65.5644 0.611289 65.4831 0.554009 65.393 0.51408C65.303 0.474151 65.2059 0.452354 65.1074 0.449933C65.0089 0.447513 64.9109 0.464517 64.819 0.499974C63.0825 1.13939 61.5853 2.29855 60.5313 3.81956C59.4773 5.34058 58.9178 7.14951 58.929 8.99997C49.579 9.49997 42.109 19 42.109 30.63V31.63C42.3371 36.5936 40.7359 41.4684 37.609 45.33C37.511 45.4489 37.418 45.5728 37.3264 45.6947C37.2871 45.747 37.248 45.7989 37.209 45.85C33.9155 44.3891 30.3519 43.6362 26.749 43.64C22.7781 43.6264 18.8568 44.5226 15.286 46.2597C11.7152 47.9969 8.58979 50.5288 6.14944 53.6614C3.70909 56.7939 2.01868 60.4439 1.20789 64.3311C0.397107 68.2184 0.487485 72.2397 1.47209 76.0866C2.4567 79.9336 4.30938 83.5038 6.888 86.5236C9.46663 89.5434 12.7027 91.9324 16.3479 93.5073C19.9931 95.0823 23.9507 95.8014 27.917 95.6094C31.8833 95.4175 35.7529 94.3196 39.229 92.4C44.8099 94.4224 50.6932 95.4841 56.629 95.54C64.6707 95.5443 72.5597 93.3446 79.439 89.18C109.849 71.08 102.369 37.19 102.289 36.85ZM38.779 46.28C42.1359 42.1368 43.8578 36.907 43.619 31.58V30.58C43.619 19.47 50.829 10.43 59.699 10.43C68.569 10.43 75.789 19.43 75.789 30.58V31.58C75.5586 36.9075 77.2835 42.1355 80.639 46.28C81.6543 47.5295 82.5547 48.8683 83.329 50.28C78.3157 58.1408 71.6641 64.8265 63.829 69.88C60.1444 72.2708 56.1687 74.1797 51.999 75.56C53.343 69.9166 52.7527 63.9854 50.3228 58.7176C47.8929 53.4498 43.7642 49.1508 38.599 46.51L38.779 46.28ZM26.7742 94.09C21.9329 94.093 17.1994 92.6604 13.1721 89.9734C9.14358 87.2854 6.00281 83.463 4.1472 78.9896C2.2916 74.5163 1.80454 69.593 2.74766 64.8428C3.69078 60.0925 6.02168 55.7287 9.44548 52.3035C12.8693 48.8784 17.2321 46.5457 21.9819 45.6006C26.7318 44.6555 31.6553 45.1406 36.1294 46.9944C40.6035 48.8481 44.4273 51.9874 47.1168 56.0148C49.8064 60.0423 51.241 64.777 51.239 69.62C51.2328 71.8061 50.9369 73.9817 50.359 76.09C40.9611 78.8473 31.0112 79.1367 21.469 76.93C21.328 76.8921 21.1793 76.8944 21.0396 76.9369C20.9 76.9793 20.775 77.0601 20.679 77.17L18.549 79.73C18.4386 79.8779 18.3858 80.061 18.4006 80.245C18.4153 80.4291 18.4965 80.6014 18.629 80.73C24.2465 85.3475 30.5574 89.0497 37.329 91.7C34.0327 93.2731 30.4265 94.0897 26.7742 94.09ZM78.699 87.89C51.479 104.09 24.389 83.54 20.199 80.12L21.549 78.5C24.929 79.33 45.549 83.61 64.669 71.14C72.7465 65.9079 79.5854 58.9768 84.709 50.83C84.8053 50.7409 84.8746 50.6265 84.909 50.5C87.2881 46.7513 89.1895 42.7201 90.569 38.5C94.729 36.3 94.569 30.15 94.389 27.97L96.999 27.67C97.649 34.83 99.909 36.94 100.899 37.53C101.589 41.09 106.499 71.33 78.679 87.89H78.699ZM59.6892 18.41C64.0992 18.41 67.8192 23.99 67.8192 30.59V31.27C67.8137 31.4682 67.8859 31.6608 68.0204 31.8065C68.155 31.9522 68.3411 32.0396 68.5392 32.05C68.733 32.0501 68.9194 31.9752 69.0592 31.841C69.199 31.7068 69.2814 31.5236 69.2892 31.33V30.59C69.2892 23.17 64.8792 16.91 59.6592 16.91C59.4603 16.91 59.2695 16.989 59.1288 17.1296C58.9882 17.2703 58.9092 17.4611 58.9092 17.66C58.9092 17.8589 58.9882 18.0497 59.1288 18.1903C59.2695 18.331 59.4603 18.41 59.6592 18.41H59.6892ZM29.8989 53.71C33.1995 54.351 36.227 55.9809 38.5793 58.3832C40.9317 60.7856 42.4975 63.8467 43.0689 67.16C43.0974 67.3358 43.1875 67.4957 43.3231 67.6111C43.4587 67.7265 43.6309 67.7899 43.8089 67.79H43.9389C44.0358 67.7743 44.1285 67.7395 44.2118 67.6876C44.2951 67.6357 44.3672 67.5677 44.424 67.4877C44.4807 67.4077 44.521 67.3172 44.5425 67.2214C44.5639 67.1257 44.5661 67.0266 44.5489 66.93C43.9247 63.3126 42.2164 59.9701 39.6503 57.345C37.0842 54.72 33.7813 52.9363 30.1789 52.23C30.0823 52.2113 29.983 52.212 29.8866 52.2322C29.7903 52.2523 29.699 52.2914 29.6179 52.3473C29.5369 52.4032 29.4679 52.4747 29.4148 52.5575C29.3618 52.6404 29.3258 52.7331 29.3089 52.83C29.2707 53.0249 29.3114 53.2271 29.422 53.392C29.5326 53.557 29.7041 53.6714 29.8989 53.71ZM10.2393 74.73C10.2393 75.1442 9.90347 75.48 9.48926 75.48C9.07504 75.48 8.73926 75.1442 8.73926 74.73C8.73926 74.3158 9.07504 73.98 9.48926 73.98C9.90347 73.98 10.2393 74.3158 10.2393 74.73ZM14.4092 74.37C14.8234 74.37 15.1592 74.0342 15.1592 73.62C15.1592 73.2058 14.8234 72.87 14.4092 72.87C13.995 72.87 13.6592 73.2058 13.6592 73.62C13.6592 74.0342 13.995 74.37 14.4092 74.37ZM14.0791 78.84C14.0791 79.2542 13.7433 79.59 13.3291 79.59C12.9149 79.59 12.5791 79.2542 12.5791 78.84C12.5791 78.4258 12.9149 78.09 13.3291 78.09C13.7433 78.09 14.0791 78.4258 14.0791 78.84ZM94.2486 47.3366C94.3412 47.3018 94.4399 47.286 94.5387 47.29C94.7368 47.2978 94.924 47.3827 95.0603 47.5265C95.1967 47.6703 95.2715 47.8618 95.2687 48.06C95.0687 55.39 93.0687 66 84.6387 74.93C84.5685 75.0057 84.4834 75.0661 84.3888 75.1074C84.2941 75.1487 84.192 75.17 84.0887 75.17C83.8978 75.1694 83.7147 75.094 83.5787 74.96C83.4383 74.8194 83.3594 74.6287 83.3594 74.43C83.3594 74.2312 83.4383 74.0406 83.5787 73.9C91.6487 65.32 93.5687 55.09 93.7687 48.02C93.77 47.9211 93.791 47.8234 93.8307 47.7328C93.8703 47.6422 93.9277 47.5604 93.9995 47.4923C94.0713 47.4243 94.156 47.3713 94.2486 47.3366Z" fill="#323232"></path></svg> 