<?xml version="1.0" encoding="UTF-8"?> <svg xmlns="http://www.w3.org/2000/svg" width="386" height="403" viewBox="0 0 386 403" fill="none"><path fill-rule="evenodd" clip-rule="evenodd" d="M180.15 50.1003L173.39 47.4703C172.709 47.2283 172.084 46.8498 171.555 46.358C171.025 45.8662 170.601 45.2715 170.31 44.6103C170.018 43.949 169.86 43.2367 169.845 42.5143C169.83 41.7918 169.957 41.0734 170.22 40.4003C170.783 39.0536 171.849 37.9791 173.191 37.4042C174.533 36.8293 176.046 36.7992 177.41 37.3203L182.54 39.3203C183.08 37.5603 183.64 35.7803 184.33 33.8503L184.74 32.7703C184.88 32.4203 185.01 32.0503 185.14 31.6803L180.41 29.8003C179.055 29.2514 177.967 28.1982 177.374 26.8625C176.78 25.5269 176.729 24.0132 177.23 22.6403C177.773 21.2819 178.808 20.1785 180.13 19.5503C180.791 19.2549 181.505 19.094 182.23 19.0768C182.954 19.0597 183.675 19.1866 184.35 19.4503L189.15 21.3603C189.553 20.4269 189.941 19.5091 190.319 18.6148L190.322 18.61L190.322 18.6096L190.322 18.6089L190.322 18.6079C190.992 17.0232 191.631 15.5126 192.27 14.1203L187.27 12.1203C186.59 11.8641 185.968 11.476 185.44 10.9783C184.911 10.4805 184.486 9.88305 184.19 9.22029C183.896 8.57561 183.736 7.87786 183.721 7.16955C183.705 6.46124 183.834 5.75719 184.1 5.10029C184.343 4.43602 184.719 3.82785 185.203 3.31231C185.688 2.79677 186.272 2.38451 186.92 2.10029C187.626 1.77712 188.389 1.59743 189.165 1.57168C189.941 1.54593 190.714 1.67463 191.44 1.95029L197.57 4.31029C199.56 2.00029 201.56 0.930291 203.75 1.00029C204.913 1.10776 206.039 1.46874 207.048 2.05786C208.057 2.64698 208.924 3.44994 209.59 4.41029C210.24 4.226 210.913 4.13179 211.59 4.13029C212.756 4.23001 213.886 4.58437 214.9 5.16838C215.914 5.75239 216.788 6.55182 217.46 7.51029C218.103 7.29458 218.784 7.21623 219.46 7.28029C221.49 7.35029 223.42 8.47029 225.17 10.5803C225.814 10.3673 226.494 10.2857 227.17 10.3403C227.505 10.3626 227.839 10.406 228.17 10.4703C231.15 7.40029 236.62 5.01029 243.38 7.23029C244.121 7.53654 244.719 8.11269 245.053 8.84251C245.387 9.57234 245.431 10.4015 245.177 11.1628C244.923 11.9241 244.39 12.5608 243.686 12.9445C242.981 13.3282 242.157 13.4303 241.38 13.2303C240.068 12.7028 238.643 12.5223 237.242 12.7062C235.841 12.8901 234.51 13.4323 233.38 14.2803C234.091 15.2836 234.701 16.3556 235.2 17.4803C235.196 17.5102 235.196 17.5404 235.2 17.5703C235.372 18.0471 235.44 18.555 235.4 19.0603L236.63 19.5603L240.57 21.0903C243.582 22.266 246.332 24.0262 248.661 26.2693C250.99 28.5125 252.852 31.1943 254.14 34.1603C255.515 37.2406 256.224 40.5769 256.22 43.9503L377.89 91.6603C378.991 92.08 379.997 92.718 380.846 93.536C381.695 94.354 382.369 95.335 382.83 96.4203C383.431 97.7847 383.679 99.2786 383.551 100.764C383.423 102.25 382.923 103.679 382.097 104.921C381.271 106.162 380.146 107.176 378.825 107.868C377.504 108.56 376.031 108.908 374.54 108.88C373.345 108.88 372.161 108.657 371.05 108.22L249.7 60.7303C246.325 64.3306 241.953 66.8419 237.143 67.9429C232.333 69.0439 227.304 68.6843 222.7 66.9103L216.8 64.5703L214.97 63.8703C214.782 64.12 214.564 64.3451 214.32 64.5403C213.43 65.24 212.464 65.8371 211.44 66.3203C211.547 66.4135 211.627 66.5346 211.67 66.6703C212.63 70.2903 215.21 75.0803 222.07 77.3703C237.88 82.7003 237.23 87.4903 232.8 101.7C232.61 102.37 232.38 103.06 232.14 103.78L231.67 105.25C231.2 106.9 231.19 108.05 231.67 108.32C236.08 110.73 255.16 102.51 262.37 93.8903C262.64 93.5659 262.974 93.3001 263.35 93.1092C263.727 92.9184 264.138 92.8064 264.56 92.7803C264.974 92.7483 265.391 92.8029 265.784 92.9406C266.176 93.0783 266.536 93.2962 266.84 93.5803C267.432 94.1454 267.789 94.9133 267.84 95.7303C267.879 96.1461 267.83 96.5655 267.698 96.9616C267.565 97.3576 267.351 97.7216 267.07 98.0303C263.27 102.49 256.09 107.45 248.36 110.95C244.34 112.76 238.52 114.95 233.61 114.95C231.835 114.996 230.077 114.605 228.49 113.81C226.9 112.94 223.44 110.19 225.55 103.33L225.87 102.28L225.935 102.067C226.181 101.266 226.414 100.504 226.69 99.7503L226.72 99.6542C228.434 94.2043 229.666 90.2886 229.02 88.3003C228.47 86.7503 225.85 85.3003 219.97 83.3003C216.011 82.0553 212.491 79.7054 209.823 76.5271C207.155 73.3489 205.45 69.4746 204.91 65.3603C204.369 64.7247 203.986 63.9712 203.79 63.1603C202.811 63.6553 201.736 63.9317 200.64 63.9703C200.097 63.9758 199.558 63.8809 199.05 63.6903L198.82 63.5803C198.42 63.4101 198.054 63.1697 197.74 62.8703C196.871 62.1492 196.272 61.1553 196.04 60.0503C195.095 60.5615 194.044 60.8457 192.97 60.8803C192.366 60.8837 191.768 60.7682 191.21 60.5403C190.784 60.3272 190.376 60.0797 189.99 59.8003C189.114 59.0889 188.499 58.1079 188.24 57.0103C187.266 57.5554 186.175 57.8573 185.06 57.8903C184.456 57.8929 183.859 57.7774 183.3 57.5503C182.875 57.3396 182.471 57.0919 182.09 56.8103C180.49 55.5503 179.88 53.4103 180.15 50.1003ZM221.58 78.7903C214.09 76.2903 211.21 71.0503 210.21 67.0503C210.172 66.9551 210.158 66.8521 210.17 66.7503C209.612 66.9191 209.033 67.0099 208.45 67.0203C207.884 67.0216 207.322 66.9235 206.79 66.7303L206.65 66.6603C207.385 70.1931 209.051 73.4652 211.475 76.1378C213.9 78.8103 216.995 80.786 220.44 81.8603C226.99 84.0603 229.7 85.6803 230.44 87.8003C231.25 90.2203 230 94.2203 228.11 100.22C227.871 100.873 227.67 101.52 227.462 102.19L227.462 102.191L227.461 102.191L227.461 102.192L227.461 102.192C227.408 102.363 227.354 102.536 227.3 102.71L226.98 103.71C225.26 109.31 227.64 111.58 229.2 112.43C230.565 113.121 232.08 113.465 233.61 113.43C238.49 113.43 244.56 111 247.73 109.54C255.29 106.13 262.27 101.32 265.95 96.9903C266.095 96.8342 266.205 96.6494 266.274 96.4478C266.343 96.2462 266.369 96.0325 266.35 95.8203C266.307 95.3692 266.101 94.9493 265.77 94.6403C265.615 94.4959 265.432 94.385 265.232 94.3144C265.033 94.2439 264.821 94.2152 264.61 94.2303C264.388 94.2456 264.172 94.3058 263.974 94.4072C263.776 94.5087 263.601 94.6492 263.46 94.8203C256.12 103.59 236.34 112.59 230.9 109.59C229.67 108.92 229.45 107.3 230.23 104.76C230.298 104.55 230.367 104.335 230.435 104.119C230.527 103.832 230.618 103.545 230.71 103.27C230.94 102.61 231.16 101.94 231.35 101.27C235.64 87.5403 236.15 83.7903 221.58 78.7903ZM247.615 27.3248C245.432 25.219 242.854 23.5657 240.03 22.4603L234.69 20.3503C234.522 20.4151 234.337 20.4151 234.17 20.3503C234.034 20.2872 233.92 20.1866 233.84 20.0603L228.66 17.9903C228.323 18.3604 228.019 18.7585 227.75 19.1803C227.254 19.9136 226.819 20.6862 226.45 21.4903L225.75 23.0203L224.75 25.1403L226.75 25.9503C227.437 26.2155 228.065 26.6143 228.598 27.1236C229.131 27.6329 229.557 28.2426 229.853 28.9176C230.148 29.5926 230.307 30.3195 230.321 31.0562C230.334 31.793 230.201 32.5251 229.93 33.2103C229.672 33.8903 229.282 34.5126 228.783 35.0412C228.283 35.5698 227.684 35.9943 227.02 36.2903C226.315 36.5936 225.557 36.7502 224.79 36.7503C224.104 36.758 223.424 36.6288 222.79 36.3703L220.39 35.4503C219.34 38.0103 218.36 40.5003 217.54 42.7603L219.95 43.6903C221.304 44.2392 222.393 45.2924 222.986 46.628C223.579 47.9637 223.631 49.4774 223.13 50.8503C222.877 51.5354 222.489 52.1627 221.989 52.6952C221.489 53.2277 220.887 53.6545 220.22 53.9503C219.517 54.2595 218.758 54.4196 217.99 54.4203C217.304 54.4274 216.625 54.2983 215.99 54.0403L213.99 53.2703C213.135 55.8635 212.591 58.5489 212.37 61.2703L214.65 62.1603C214.755 62.1573 214.86 62.1743 214.96 62.2103C215.053 62.2516 215.137 62.3091 215.21 62.3803L223.21 65.5203C227.616 67.2182 232.435 67.5365 237.027 66.4327C241.618 65.329 245.766 62.8555 248.92 59.3403C249.022 59.2277 249.156 59.1484 249.304 59.1127C249.452 59.0771 249.607 59.0867 249.75 59.1403L371.6 106.86C373.388 107.603 375.391 107.639 377.204 106.962C379.018 106.284 380.507 104.943 381.37 103.21C381.82 102.248 382.06 101.201 382.073 100.139C382.087 99.0768 381.875 98.0239 381.45 97.0503C381.069 96.1431 380.51 95.3216 379.805 94.6345C379.101 93.9474 378.266 93.4087 377.35 93.0503L255.22 45.1303C255.077 45.073 254.955 44.9731 254.871 44.8443C254.787 44.7155 254.745 44.564 254.75 44.4103C254.805 41.0756 254.122 37.77 252.75 34.7303C251.543 31.9474 249.798 29.4306 247.615 27.3248ZM216.793 44.6061C216.778 44.6478 216.764 44.6892 216.75 44.7303C215.89 47.1403 215.13 49.4503 214.45 51.7903L216.58 52.6103C217.569 52.9936 218.669 52.9684 219.64 52.5403C220.124 52.3224 220.56 52.0104 220.922 51.6224C221.284 51.2344 221.566 50.7782 221.75 50.2803C222.108 49.2725 222.063 48.1651 221.623 47.1901C221.183 46.2152 220.383 45.4483 219.39 45.0503L216.97 44.1203C216.906 44.2792 216.849 44.4445 216.793 44.6061ZM226.23 27.3803L224.15 26.5503C223.08 28.9503 222 31.4203 220.93 34.0203L223.31 34.9403C224.299 35.3236 225.399 35.2984 226.37 34.8703C227.091 34.5376 227.7 34.002 228.122 33.3288C228.545 32.6556 228.762 31.874 228.747 31.0796C228.732 30.2851 228.486 29.5122 228.039 28.8552C227.592 28.1983 226.963 27.6858 226.23 27.3803ZM243.864 9.39283C243.667 8.99525 243.32 8.69218 242.9 8.55029V8.60029C237.16 6.71029 232.49 8.48029 229.75 10.9503C230.758 11.4722 231.66 12.1776 232.41 13.0303C233.737 12.0259 235.3 11.3781 236.949 11.1488C238.598 10.9195 240.278 11.1162 241.83 11.7203C242.25 11.8622 242.71 11.8313 243.107 11.6344C243.505 11.4374 243.808 11.0907 243.95 10.6703C244.092 10.2499 244.061 9.79041 243.864 9.39283ZM233.79 18.0703C232.97 16.2103 230.68 11.9103 227.05 11.7803C226.445 11.7131 225.833 11.7991 225.27 12.0303C225.181 12.1018 225.073 12.1468 224.96 12.1603C223.653 12.7694 222.529 13.7108 221.7 14.8903L221.56 15.0203C220.799 16.1064 220.13 17.2537 219.56 18.4503L218.97 19.7103C218.49 20.7203 217.94 21.8903 217.35 23.2003C216.37 25.3703 215.26 27.9703 214.09 30.7303L213.16 32.9903C212.11 35.5203 211.11 38.1303 210.11 40.8203C209.726 41.7282 209.393 42.6562 209.11 43.6003C208.39 45.7203 207.75 47.6903 207.11 49.8103C206.369 52.0784 205.781 54.3935 205.35 56.7403C205.21 57.4603 205.13 58.1503 205.06 58.8203V59.0403C205 59.9059 205 60.7746 205.06 61.6403C205.153 61.8152 205.175 62.0197 205.12 62.2103C205.215 63.006 205.534 63.7584 206.04 64.3803C206.123 64.4322 206.192 64.5045 206.24 64.5903C206.315 64.6659 206.395 64.7361 206.48 64.8003C206.7 65.0027 206.954 65.1652 207.23 65.2803L207.4 65.3603C208.4 65.7403 210.34 65.7103 213.4 63.3603L213.47 63.3003L211.33 62.4803C211.177 62.4196 211.05 62.31 210.966 62.1689C210.883 62.0277 210.849 61.8629 210.87 61.7003C210.865 61.6738 210.865 61.6468 210.87 61.6203C211.085 58.2971 211.758 55.0196 212.87 51.8803C213.65 49.3403 214.47 46.8503 215.38 44.2603C215.51 43.8703 215.66 43.4603 215.84 43.0403C215.836 42.9837 215.836 42.9269 215.84 42.8703C215.871 42.7966 215.915 42.7289 215.97 42.6703C216.86 40.2003 217.98 37.3303 219.19 34.4103C219.175 34.3276 219.175 34.243 219.19 34.1603C219.231 34.0644 219.288 33.9764 219.36 33.9003C220.55 31.0003 221.75 28.2103 222.93 25.5803C222.926 25.4769 222.946 25.3741 222.99 25.2803C223.033 25.1666 223.105 25.0665 223.2 24.9903C223.595 24.1624 223.957 23.3684 224.293 22.6315L224.293 22.6305L224.38 22.4403C224.63 21.8803 224.87 21.3603 225.1 20.8803C225.508 19.9896 225.993 19.1363 226.55 18.3303C226.98 17.655 227.491 17.0339 228.07 16.4803L228.15 16.4003C228.497 16.0827 228.94 15.8893 229.41 15.8503C229.652 15.8334 229.893 15.8928 230.1 16.0203C230.799 16.4047 231.39 16.9583 231.82 17.6303L233.89 18.4503C233.869 18.3206 233.835 18.1934 233.79 18.0703ZM221.745 9.46877C220.991 9.0521 220.158 8.79719 219.3 8.72029C218.654 8.66614 218.006 8.78343 217.42 9.06029C216.071 9.66028 214.912 10.6183 214.07 11.8303C214.028 11.8791 213.981 11.9228 213.93 11.9603C213.171 13.0475 212.502 14.1946 211.93 15.3903L211.32 16.6803C210.85 17.6803 210.31 18.8403 209.72 20.1403C208.821 22.12 207.822 24.4778 206.761 26.9826L206.47 27.6703L205.54 29.9203C204.48 32.4503 203.48 35.0603 202.48 37.7503C202.1 38.6663 201.766 39.6008 201.48 40.5503C200.76 42.6703 200.12 44.6403 199.48 46.7503C198.736 49.0133 198.151 51.3256 197.73 53.6703C197.602 54.2836 197.532 54.8824 197.465 55.4604L197.465 55.4609C197.453 55.5613 197.442 55.6611 197.43 55.7603V55.9703C197.365 56.8891 197.365 57.8114 197.43 58.7303V58.7903C197.435 58.8201 197.435 58.8505 197.43 58.8803C197.455 59.4324 197.594 59.9734 197.838 60.469C198.082 60.9647 198.427 61.4044 198.85 61.7603C199.067 61.9595 199.317 62.1186 199.59 62.2303L199.76 62.3203C200.71 62.6803 202.01 62.4503 203.65 61.6203C203.591 60.7146 203.591 59.806 203.65 58.9003V58.6503C203.72 57.9803 203.81 57.2303 203.96 56.4703C204.396 54.0661 204.994 51.6941 205.75 49.3703C206.37 47.2403 207.02 45.2503 207.75 43.1403C208.08 42.1553 208.467 41.1904 208.91 40.2503C209.656 38.1146 210.493 36.0047 211.312 33.9412C211.513 33.4347 211.713 32.9309 211.91 32.4303L212.85 30.1503L212.956 29.8977L212.957 29.8962C214.087 27.2208 215.15 24.7032 216.12 22.5803C216.459 21.875 216.766 21.2015 217.053 20.574L217.053 20.5738L217.053 20.5726C217.298 20.0352 217.528 19.5315 217.75 19.0703L218.36 17.7803C218.93 16.5482 219.598 15.3643 220.36 14.2403C220.431 14.0929 220.542 13.9682 220.68 13.8803C221.492 12.7805 222.511 11.8498 223.68 11.1403C223.158 10.4547 222.499 9.88544 221.745 9.46877ZM212.94 10.8103C213.753 9.71138 214.772 8.78083 215.94 8.07029C215.413 7.37311 214.747 6.79276 213.985 6.3659C213.222 5.93904 212.379 5.67494 211.51 5.59029C210.827 5.59102 210.15 5.71291 209.51 5.95029C208.255 6.55366 207.18 7.47398 206.39 8.62029C206.317 8.74681 206.219 8.85602 206.1 8.94029C205.309 10.0461 204.639 11.2328 204.1 12.4803C203.653 13.373 203.141 14.4942 202.555 15.7743C202.459 15.9854 202.36 16.2008 202.26 16.4203L201.99 17.0303C200.83 19.6003 199.52 22.6303 198.2 25.8003L197.77 26.8803C196.77 29.3903 195.77 31.9803 194.77 34.6503C194.57 35.2303 194.34 35.8403 194.11 36.4303C193.98 36.7403 193.84 37.0903 193.72 37.4303C192.956 39.5283 192.342 41.5515 191.778 43.4095L191.777 43.4101L191.72 43.6003C190.984 45.8698 190.396 48.1846 189.96 50.5303C189.84 51.2103 189.76 51.8403 189.7 52.3903L189.64 52.8403C189.487 53.7741 189.487 54.7265 189.64 55.6603C189.659 56.2235 189.796 56.7766 190.04 57.2844C190.284 57.7922 190.632 58.2437 191.06 58.6103C191.349 58.8245 191.657 59.0119 191.98 59.1703C192.655 59.3637 193.366 59.4021 194.059 59.2826C194.751 59.1631 195.408 58.8889 195.98 58.4803C195.926 57.6011 195.926 56.7195 195.98 55.8403V55.6003L195.995 55.4711L196.012 55.3298L196.013 55.3182L196.014 55.3129L196.014 55.3109C196.084 54.7131 196.161 54.053 196.29 53.4003C196.726 50.995 197.327 48.6227 198.09 46.3003C198.71 44.1803 199.36 42.2003 200.09 40.0703C200.396 39.0878 200.757 38.123 201.17 37.1803C201.925 35.0295 202.772 32.8919 203.599 30.8048C203.79 30.3204 203.981 29.8388 204.17 29.3603L205.11 27.0803C205.332 26.5595 205.552 26.0436 205.769 25.5347C206.701 23.3471 207.578 21.2889 208.39 19.5203C208.63 18.9997 208.859 18.4984 209.077 18.0202L209.085 18.0035L209.087 18.0002L209.087 17.9997C209.41 17.2914 209.711 16.6341 209.99 16.0403L210.62 14.7203C211.194 13.4902 211.862 12.3066 212.62 11.1803C212.691 11.0301 212.801 10.9021 212.94 10.8103ZM185.219 7.1265C185.23 7.64245 185.345 8.15082 185.56 8.62029C185.774 9.10992 186.085 9.55156 186.473 9.91912C186.861 10.2867 187.319 10.5727 187.82 10.7603L192.93 12.7603C193.64 11.1503 194.27 9.76029 194.77 8.76029C195.311 7.65768 195.919 6.58903 196.59 5.56029L190.9 3.34029C189.813 2.93134 188.608 2.97091 187.55 3.45029C187.081 3.65825 186.659 3.95716 186.307 4.32967C185.955 4.70218 185.681 5.14088 185.5 5.62029C185.304 6.09795 185.209 6.61055 185.219 7.1265ZM180.75 20.9503C179.793 21.3991 179.039 22.1916 178.64 23.1703C178.268 24.1793 178.303 25.2935 178.737 26.2772C179.172 27.2608 179.973 28.0366 180.97 28.4403L185.68 30.3103C186.6 27.8403 187.55 25.4503 188.48 23.1403L188.63 22.7603L183.81 20.8803C183.321 20.6861 182.798 20.5923 182.273 20.6043C181.747 20.6163 181.229 20.734 180.75 20.9503ZM186.15 33.3603L185.75 34.3603C184.96 36.5403 184.35 38.5303 183.75 40.5403C182.745 43.5412 182.071 46.6429 181.74 49.7903C181.34 53.7503 182.31 55.0003 183.07 55.6003C183.361 55.8143 183.668 56.0049 183.99 56.1703C184.669 56.3544 185.382 56.3835 186.074 56.2555C186.766 56.1274 187.421 55.8454 187.99 55.4303C187.897 54.4977 187.92 53.5571 188.06 52.6303L188.11 52.1903L188.115 52.1499C188.183 51.5892 188.263 50.9436 188.39 50.2503C188.829 47.8434 189.427 45.4683 190.18 43.1403C190.74 41.2203 191.38 39.1503 192.18 36.9003C192.215 36.806 192.25 36.7109 192.285 36.6154C192.38 36.3563 192.477 36.0933 192.58 35.8303L192.661 35.6205C192.855 35.1181 193.053 34.608 193.22 34.0903C194.056 31.8238 194.927 29.6342 195.775 27.504L195.777 27.4994L195.778 27.4957L195.779 27.4934L195.783 27.4833C195.947 27.0735 196.109 26.6658 196.27 26.2603L196.71 25.1703C198.03 21.9803 199.34 18.9303 200.51 16.3503L200.79 15.7403C201.5 14.1703 202.12 12.8103 202.62 11.8103C203.222 10.4326 203.973 9.12482 204.86 7.91029L204.94 7.82029L205.03 7.73029C205.862 6.6195 206.897 5.67624 208.08 4.95029C207.535 4.27273 206.858 3.7138 206.089 3.30793C205.32 2.90207 204.476 2.65784 203.61 2.59029C201.86 2.59029 200.17 3.59029 198.45 5.59029C198.401 5.72025 198.314 5.83205 198.2 5.91029C197.406 7.05864 196.701 8.26542 196.09 9.52029C195.58 10.5203 194.94 11.9003 194.21 13.5203L194.04 13.8903V14.0203C194.008 14.0971 193.964 14.1681 193.91 14.2303C192.81 16.6603 191.59 19.4603 190.36 22.4603C190.365 22.5235 190.365 22.587 190.36 22.6503C190.328 22.724 190.284 22.7917 190.23 22.8503L189.88 23.7203C188.88 26.1603 187.88 28.6903 186.88 31.2803C186.904 31.3889 186.904 31.5017 186.88 31.6103C186.838 31.7 186.781 31.7813 186.71 31.8503C186.53 32.3589 186.341 32.8576 186.151 33.3563L186.151 33.3571L186.15 33.3586L186.15 33.3603ZM173.777 38.7623C172.8 39.1825 172.026 39.9676 171.62 40.9503C171.428 41.4378 171.335 41.9586 171.348 42.4823C171.36 43.006 171.476 43.5221 171.69 44.0003C171.894 44.4886 172.199 44.9281 172.585 45.2901C172.971 45.652 173.429 45.9281 173.93 46.1003L180.29 48.5703C180.684 45.9327 181.289 43.331 182.1 40.7903L176.85 38.7003C175.857 38.3198 174.754 38.342 173.777 38.7623ZM384.98 210.72C382.52 184.81 374.28 169.05 361.13 165.13C357.92 164.124 354.54 163.783 351.194 164.127C347.848 164.471 344.608 165.493 341.67 167.13C339.031 168.641 336.61 170.501 334.47 172.66C322.619 161.31 308.898 152.091 293.91 145.41C296.224 139.839 296.726 133.68 295.344 127.807C293.962 121.934 290.766 116.645 286.21 112.69L279.68 107.04C279.604 106.974 279.516 106.923 279.42 106.89L279.11 106.63L278.83 106.96C278.75 106.999 278.678 107.053 278.62 107.12C278.564 107.184 278.523 107.259 278.5 107.34L268.21 119.16C268.179 119.174 268.152 119.195 268.13 119.22C268.124 119.247 268.124 119.274 268.13 119.3L255.94 133.3H255.82C248.347 131.871 240.803 130.843 233.22 130.22C228.996 129.93 224.759 129.88 220.53 130.07C220.381 130.095 220.244 130.165 220.136 130.27C220.029 130.376 219.957 130.512 219.93 130.66C219.491 129.365 218.591 128.277 217.402 127.604C216.212 126.931 214.816 126.719 213.48 127.01L208.14 128.19C207.88 126.27 207.58 124.44 207.2 122.54L207.14 122.18V122.18V122.18V122.18V122.18V122.18V122.18V122.18V122.179V122.179V122.179V122.179V122.179V122.179V122.179C207.03 121.549 206.92 120.92 206.79 120.31L211.79 119.2C212.853 118.968 213.823 118.425 214.578 117.641C215.332 116.856 215.836 115.865 216.025 114.793C216.215 113.722 216.082 112.618 215.643 111.622C215.204 110.626 214.479 109.783 213.56 109.2C212.302 108.445 210.809 108.184 209.37 108.47L204.37 109.58C203.74 106.91 203.08 104.29 202.37 101.75L207.67 100.57C208.745 100.35 209.728 99.808 210.49 99.0172C211.251 98.2264 211.755 97.2234 211.934 96.1405C212.114 95.0575 211.962 93.9456 211.497 92.9512C211.032 91.9568 210.276 91.1267 209.33 90.5703C208.06 89.7689 206.529 89.4927 205.06 89.8003L198.75 91.1603C198.215 90.0892 197.439 89.1568 196.483 88.4366C195.527 87.7164 194.417 87.2282 193.24 87.0103C191.17 86.7403 189.12 87.5403 186.99 89.4203C186.37 89.0838 185.691 88.8699 184.99 88.7903C182.3 88.4303 179.99 89.9903 178.72 91.1903C178.082 90.8972 177.41 90.6855 176.72 90.5603C174.66 90.2903 172.62 91.0803 170.5 92.9503C169.881 92.6659 169.23 92.4609 168.56 92.3403C163.89 91.7603 160.4 96.7103 159.43 98.2703C159.15 98.7635 159.008 99.3232 159.02 99.8903L153.55 101.06C150.397 101.734 147.41 103.031 144.765 104.875C142.121 106.72 139.871 109.074 138.15 111.8C136.32 114.647 135.098 117.84 134.56 121.18L7.05973 149.31C4.72532 149.847 2.69782 151.285 1.41973 153.31C0.736031 154.398 0.29305 155.619 0.120565 156.892C-0.0519195 158.165 0.0500889 159.46 0.419734 160.69C0.975242 162.582 2.13352 164.241 3.71837 165.414C5.30323 166.588 7.22794 167.211 9.19973 167.19C9.90977 167.188 10.6174 167.108 11.3097 166.95L138.52 138.9C140.105 141.246 142.088 143.297 144.38 144.96C139.067 147.304 133.892 149.948 128.88 152.88L126.88 148.78L126.82 148.71C126.824 148.68 126.824 148.65 126.82 148.62C126.732 148.443 126.577 148.308 126.39 148.244C126.202 148.181 125.998 148.194 125.82 148.28L112.11 155.06C105.752 158.197 100.296 162.899 96.2552 168.724C92.2143 174.549 89.721 181.307 89.0097 188.36C77.7097 204.15 71.4797 222.06 71.0097 240.16C70.6397 240.5 70.2697 240.85 70.0097 241.16C54.5197 255.05 50.9097 297.25 59.0797 366.59C61.1584 384.329 58.3334 387.686 56.2638 390.146L56.2597 390.15C55.0533 391.479 53.6126 392.574 52.0097 393.38L51.9526 393.413C50.5367 394.229 49.3112 394.935 48.6797 396.06C48.4025 396.631 48.2651 397.26 48.279 397.895C48.2929 398.53 48.4577 399.152 48.7597 399.71C49.1383 400.351 49.6851 400.877 50.3408 401.229C50.9965 401.582 51.7362 401.748 52.4797 401.71C56.8697 401.71 60.2597 399.02 62.4797 396.99C67.8697 391.99 69.6797 381.44 67.8797 365.78C63.1297 325.47 59.9897 273.78 71.1597 252.41C73.0912 289.42 88.9445 324.331 115.54 350.14C127.318 366.458 142.804 379.744 160.722 388.906C178.64 398.068 198.478 402.843 218.603 402.838C238.727 402.833 258.563 398.049 276.476 388.878C294.39 379.708 309.869 366.414 321.64 350.09C321.651 350.07 321.661 350.05 321.67 350.029C321.675 350.017 321.68 350.005 321.685 349.993C321.689 349.983 321.693 349.973 321.696 349.963C321.701 349.949 321.706 349.935 321.71 349.92C335.801 336.188 346.996 319.771 354.634 301.638C362.272 283.505 366.198 264.026 366.18 244.35V242.68C366.183 242.663 366.184 242.646 366.184 242.629C366.184 242.613 366.182 242.597 366.18 242.58C366.18 219.58 357.18 197.51 340.18 178.58C341.543 177.271 343.061 176.132 344.7 175.19C349.58 172.46 354.44 171.97 359.16 173.71C371.93 178.46 375.28 194.63 376.99 211.4C379.29 233.53 376.25 255.13 373.29 269.4L372.9 271.3C368.98 290.43 357.06 348.61 365.37 359C365.805 359.639 366.385 360.166 367.063 360.538C367.741 360.91 368.497 361.117 369.27 361.14C369.606 361.136 369.942 361.096 370.27 361.02C370.697 360.906 371.095 360.703 371.439 360.426C371.784 360.149 372.067 359.803 372.27 359.41C372.93 358.06 372.47 356.41 372.07 355.2C367.69 343.55 373.47 303.01 381.13 270.77C384.58 256.46 387.08 232.36 384.98 210.72ZM294.54 132.5C294.895 137.8 293.696 143.088 291.089 147.716C288.482 152.344 284.581 156.11 279.864 158.552C275.148 160.994 269.82 162.006 264.537 161.464C259.253 160.922 254.242 158.849 250.12 155.5C253.504 156.837 257.111 157.516 260.75 157.5C261.44 157.5 262.13 157.5 262.82 157.42C267.719 157.07 272.447 155.472 276.553 152.778C280.66 150.083 284.009 146.383 286.281 142.029C288.554 137.675 289.674 132.811 289.535 127.902C289.397 122.992 288.004 118.199 285.49 113.98C290.837 118.714 294.091 125.373 294.54 132.5ZM253.02 138.95L260.94 145.89C261.013 145.956 261.099 146.007 261.192 146.039C261.285 146.072 261.384 146.085 261.482 146.08C261.581 146.074 261.677 146.049 261.766 146.007C261.855 145.964 261.934 145.904 262 145.83C262.065 145.757 262.116 145.671 262.148 145.578C262.181 145.485 262.195 145.386 262.189 145.288C262.184 145.189 262.159 145.093 262.116 145.004C262.073 144.915 262.013 144.836 261.94 144.77L254.01 137.77L260.88 129.88L271.93 139.47C272.063 139.593 272.238 139.661 272.42 139.66C272.528 139.66 272.634 139.637 272.733 139.592C272.831 139.547 272.919 139.482 272.99 139.4C273.054 139.326 273.103 139.239 273.134 139.145C273.165 139.051 273.177 138.952 273.17 138.854C273.163 138.755 273.136 138.659 273.091 138.571C273.046 138.483 272.985 138.405 272.91 138.34L261.91 128.75L268.85 120.75L276.85 127.67C277.002 127.798 277.198 127.861 277.396 127.846C277.594 127.832 277.779 127.74 277.91 127.59C277.974 127.516 278.023 127.429 278.054 127.335C278.085 127.241 278.097 127.142 278.09 127.044C278.082 126.945 278.056 126.849 278.011 126.761C277.966 126.673 277.905 126.595 277.83 126.53L269.83 119.62L279.31 108.72C284.519 113.457 287.694 120.026 288.171 127.051C288.647 134.076 286.388 141.013 281.865 146.41C277.343 151.807 270.908 155.246 263.908 156.007C256.908 156.767 249.885 154.79 244.31 150.49L243.53 149.81L253.02 138.95ZM213.75 128.43C214.799 128.206 215.895 128.403 216.8 128.979C217.706 129.556 218.348 130.465 218.59 131.51C218.708 132.03 218.719 132.568 218.622 133.093C218.526 133.617 218.325 134.116 218.03 134.56C217.748 135.004 217.381 135.388 216.95 135.69C216.519 135.992 216.033 136.206 215.52 136.32L208.89 137.8C208.888 135.066 208.684 132.335 208.28 129.63L213.75 128.43ZM209.61 109.88C210.674 109.665 211.781 109.858 212.71 110.42C213.371 110.849 213.891 111.463 214.204 112.185C214.518 112.908 214.611 113.707 214.472 114.482C214.333 115.258 213.968 115.975 213.424 116.544C212.879 117.113 212.178 117.508 211.41 117.68L206.41 118.79C205.91 116.38 205.33 113.79 204.65 110.97L209.61 109.88ZM205.36 91.2303C206.442 91.0113 207.567 91.2192 208.5 91.8103C208.962 92.0911 209.364 92.4612 209.681 92.8991C209.999 93.3369 210.226 93.8337 210.35 94.3603C210.551 95.3714 210.354 96.421 209.8 97.2903C209.518 97.7343 209.151 98.1183 208.72 98.4203C208.289 98.7223 207.803 98.9364 207.29 99.0503L201.95 100.24C201.76 99.6103 201.58 98.9803 201.43 98.4103L201.382 98.2385C201.151 97.4186 200.947 96.6901 200.76 96.1103C200.41 94.8876 199.965 93.694 199.43 92.5403L205.36 91.2303ZM193 88.5003C195.23 88.7903 196.67 90.5603 197.53 92.1103V92.1903C197.562 92.3495 197.651 92.4917 197.78 92.5903C198.423 93.87 198.939 95.2098 199.32 96.5903C199.506 97.1484 199.692 97.8164 199.899 98.5595L199.899 98.5613L199.899 98.5622L199.98 98.8503C200.017 98.9837 200.055 99.1194 200.093 99.257C200.249 99.821 200.415 100.417 200.6 101.02C200.575 101.129 200.575 101.242 200.6 101.35C200.628 101.48 200.694 101.598 200.79 101.69C201.54 104.46 202.27 107.34 202.96 110.28C202.935 110.396 202.935 110.515 202.96 110.63C202.991 110.754 203.053 110.867 203.14 110.96C203.9 114.09 204.54 116.96 205.08 119.54C205.05 119.662 205.05 119.789 205.08 119.91C205.111 120.024 205.165 120.129 205.24 120.22C205.41 120.93 205.54 121.68 205.66 122.41L205.72 122.8C206.14 124.86 206.45 126.8 206.72 128.89C206.689 129.015 206.689 129.145 206.72 129.27C206.744 129.355 206.781 129.436 206.83 129.51C207.319 132.534 207.52 135.598 207.43 138.66C207.2 142.55 206.09 143.66 205.13 144.19C204.859 144.382 204.553 144.517 204.23 144.59C203.526 144.674 202.812 144.604 202.137 144.387C201.462 144.17 200.843 143.809 200.32 143.33C200.533 142.421 200.66 141.493 200.7 140.56V138.14C200.65 135.675 200.432 133.216 200.05 130.78C199.78 128.6 199.43 126.47 199.05 124.3L198.99 123.95L198.96 123.775C198.82 122.94 198.676 122.085 198.48 121.29C197.9 118.47 197.21 115.43 196.38 111.99C195.64 108.83 194.85 105.7 194.02 102.66C193.807 101.958 193.622 101.282 193.446 100.643L193.446 100.641L193.443 100.631C193.405 100.493 193.367 100.355 193.33 100.22L193.28 100.039L193.279 100.038C193.081 99.3171 192.852 98.4876 192.64 97.8703C192.57 97.6806 192.5 97.4709 192.42 97.2314L192.42 97.2303C192.034 96.041 191.569 94.8784 191.03 93.7503C191.003 93.6693 190.966 93.592 190.92 93.5203C190.309 92.2974 189.451 91.2146 188.4 90.3403C188.999 89.7311 189.718 89.253 190.512 88.9363C191.305 88.6196 192.156 88.4711 193.01 88.5003H193ZM199.75 144.78C200.829 145.594 202.129 146.061 203.48 146.12C203.573 146.126 203.666 146.126 203.76 146.12C206.37 154.56 212.07 156.48 215.16 157.51L215.309 157.56L215.31 157.56L215.312 157.561C215.555 157.642 215.784 157.717 216 157.8C216.71 158.04 217.7 158.33 218.85 158.66L218.869 158.666C223.421 159.977 231.024 162.166 234.26 165.83C234.434 165.987 234.576 166.176 234.675 166.388C234.775 166.6 234.831 166.83 234.841 167.064C234.85 167.298 234.812 167.532 234.73 167.751C234.647 167.97 234.521 168.171 234.36 168.34C233.66 169.04 231.09 167.63 230.26 167.17C228.11 165.93 216.37 161.47 213.12 160.34C209.55 159.05 202.12 156.34 200.12 145.58C200.096 145.456 200.04 145.339 199.958 145.243C199.875 145.147 199.769 145.073 199.65 145.03L199.75 144.78ZM184.75 90.2803C185.419 90.3633 186.06 90.6031 186.62 90.9803C187.802 91.7429 188.754 92.8151 189.37 94.0803C189.394 94.156 189.432 94.227 189.48 94.2903C190.008 95.384 190.459 96.5134 190.83 97.6703L191.05 98.3103C191.26 98.9403 191.48 99.7103 191.71 100.57C191.94 101.43 192.15 102.18 192.41 103.03C193.23 106.03 194.02 109.14 194.75 112.29C195.58 115.72 196.27 118.74 196.85 121.57C197.05 122.39 197.2 123.28 197.34 124.14L197.4 124.52C197.84 126.68 198.18 128.77 198.45 130.93C198.816 133.301 199.026 135.692 199.08 138.09V140.46C199.044 141.445 198.893 142.421 198.63 143.37C198.518 143.911 198.297 144.423 197.981 144.875C197.664 145.327 197.259 145.71 196.79 146C196.511 146.182 196.203 146.313 195.88 146.39C195.172 146.471 194.455 146.399 193.777 146.18C193.1 145.961 192.477 145.6 191.95 145.12C192.171 144.192 192.305 143.244 192.35 142.29V141.59C192.389 141.004 192.389 140.416 192.35 139.83C192.29 138.27 192.15 135.83 191.7 132.51C191.542 131.227 191.306 129.858 191.057 128.411L191.056 128.409L191 128.08C190.94 127.75 190.882 127.415 190.825 127.08C190.767 126.745 190.71 126.41 190.65 126.08C190.595 125.745 190.526 125.401 190.456 125.05L190.456 125.049C190.424 124.887 190.391 124.724 190.36 124.56C190.335 124.433 190.311 124.309 190.287 124.186L190.286 124.182C190.212 123.802 190.14 123.437 190.08 123.06C189.41 119.82 188.68 116.6 187.98 113.77C187.23 110.57 186.44 107.44 185.63 104.48C185.1 102.33 184.58 100.67 184.26 99.7003C183.877 98.2497 183.33 96.8474 182.63 95.5203C182.595 95.4053 182.541 95.2971 182.47 95.2003C181.838 94.0111 180.982 92.9551 179.95 92.0903C180.587 91.4665 181.348 90.983 182.183 90.6713C183.018 90.3595 183.91 90.2263 184.8 90.2803H184.75ZM176.45 92.0403C177.131 92.1586 177.785 92.3992 178.38 92.7503C179.57 93.5526 180.535 94.6477 181.18 95.9303V96.0003C181.198 96.0361 181.215 96.0728 181.23 96.1103C181.913 97.374 182.437 98.7176 182.79 100.11C183.12 101.11 183.62 102.71 184.15 104.83C184.96 107.83 185.75 110.9 186.49 114.09C187.19 116.91 187.92 120.09 188.57 123.31C188.66 123.8 188.76 124.31 188.86 124.82L188.898 125.017L188.919 125.12L188.919 125.12C188.998 125.523 189.076 125.913 189.14 126.29C189.176 126.51 189.213 126.726 189.249 126.938L189.322 127.366L189.324 127.375L189.387 127.741C189.406 127.856 189.426 127.971 189.445 128.084C189.46 128.173 189.475 128.262 189.49 128.35C189.76 129.9 190.01 131.35 190.18 132.72C190.62 135.97 190.76 138.38 190.83 139.95C190.865 140.483 190.865 141.018 190.83 141.55V142.26C190.794 143.245 190.643 144.221 190.38 145.17C190.269 145.711 190.047 146.223 189.729 146.674C189.41 147.125 189.002 147.505 188.53 147.79C188.258 147.98 187.952 148.116 187.63 148.19C186.937 148.271 186.234 148.204 185.569 147.994C184.904 147.784 184.29 147.435 183.77 146.97C184.001 146.023 184.139 145.055 184.18 144.08V143.38C184.219 142.798 184.219 142.213 184.18 141.63C184.12 140.06 183.98 137.63 183.53 134.3C183.368 132.99 183.126 131.58 182.87 130.097L182.87 130.096L182.83 129.86C182.72 129.21 182.6 128.53 182.48 127.86C182.4 127.37 182.3 126.86 182.19 126.34C182.109 125.958 182.044 125.597 181.98 125.238L181.938 125.004L181.91 124.85C181.24 121.6 180.52 118.38 179.81 115.55C179.07 112.38 178.28 109.25 177.47 106.26C176.93 104.11 176.47 102.46 176.09 101.48C175.711 100.028 175.164 98.6254 174.46 97.3003C174.425 97.1853 174.371 97.0771 174.3 96.9803C173.661 95.7814 172.795 94.7183 171.75 93.8503C172.366 93.227 173.109 92.7429 173.929 92.4307C174.748 92.1185 175.625 91.9854 176.5 92.0403H176.45ZM181.11 150.86C181.377 150.73 181.63 150.573 181.864 150.39C184.242 152.309 186.725 154.095 189.3 155.74C189.536 155.9 189.751 156.043 189.938 156.167C190.24 156.369 190.47 156.521 190.6 156.62C191.193 156.961 191.627 157.521 191.81 158.18C191.825 158.374 191.799 158.568 191.734 158.751C191.668 158.934 191.565 159.101 191.43 159.24C190.71 160.1 189.34 159.55 188.23 158.97L188.07 158.89C184.495 156.757 181.144 154.268 178.07 151.46C178.301 151.504 178.535 151.527 178.77 151.53C179.106 151.533 179.442 151.496 179.77 151.42C180.246 151.315 180.7 151.125 181.11 150.86ZM168.35 93.8203C168.939 93.9216 169.509 94.1139 170.04 94.3903C170.126 94.4826 170.237 94.5485 170.36 94.5803C171.507 95.38 172.439 96.452 173.07 97.7003C173.069 97.7068 173.068 97.7134 173.068 97.72C173.068 97.7268 173.068 97.7336 173.068 97.7405C173.068 97.7471 173.069 97.7537 173.07 97.7603C173.066 97.7969 173.066 97.8337 173.07 97.8703C173.743 99.1388 174.266 100.481 174.63 101.87C174.95 102.87 175.46 104.47 175.98 106.59C176.8 109.59 177.59 112.69 178.32 115.85C179.03 118.67 179.75 121.85 180.41 125.07C180.481 125.508 180.569 125.963 180.658 126.425L180.69 126.59C180.713 126.711 180.736 126.83 180.759 126.948L180.78 127.054C180.849 127.401 180.914 127.733 180.97 128.06C181.09 128.77 181.21 129.45 181.32 130.06L181.39 130.465C181.635 131.863 181.865 133.181 182.02 134.44C182.46 137.68 182.59 140.1 182.66 141.67C182.695 142.203 182.695 142.738 182.66 143.27V143.97C182.617 144.902 182.476 145.828 182.24 146.73C182.155 146.855 182.107 147 182.1 147.15C181.848 148.133 181.224 148.979 180.36 149.51C180.08 149.697 179.768 149.829 179.44 149.9C177.17 150.44 174.75 148.02 173.77 147.04L176 146.56C176.167 146.52 176.316 146.423 176.421 146.287C176.526 146.151 176.582 145.983 176.58 145.81C176.9 144.07 176.79 140.81 176.25 136.44C176.298 136.362 176.33 136.274 176.343 136.183C176.357 136.092 176.352 136 176.33 135.91C176.298 135.777 176.228 135.656 176.13 135.56C175.85 133.65 175.45 131.12 174.89 128.04C174.84 127.79 174.78 127.51 174.72 127.23C174.72 127.16 174.699 127.09 174.678 127.019L174.678 127.018C174.663 126.967 174.648 126.915 174.64 126.86C174.66 126.758 174.66 126.653 174.64 126.55C174.615 126.449 174.571 126.354 174.51 126.27L174.38 125.63C173.82 122.96 173.23 120.2 172.54 117.52C172.565 117.412 172.565 117.299 172.54 117.19C172.509 117.077 172.454 116.971 172.38 116.88C171.63 113.81 170.88 110.88 170.2 108.23C170.22 108.128 170.22 108.023 170.2 107.92C170.173 107.802 170.118 107.692 170.04 107.6C169.679 106.225 169.283 104.94 168.928 103.788L168.928 103.788L168.927 103.786L168.926 103.783L168.926 103.782L168.926 103.781L168.87 103.6L168.81 103.42C168.542 102.514 168.208 101.628 167.81 100.77C167.504 100.016 167.093 99.3092 166.59 98.6703C166.32 98.2908 165.939 98.0043 165.5 97.8503C165.394 97.8357 165.286 97.8357 165.18 97.8503H164.81C164.059 98.0663 163.388 98.4974 162.88 99.0903L160.47 99.6103C160.5 99.4139 160.564 99.2244 160.66 99.0503C161.59 97.6903 164.61 93.3703 168.35 93.8203ZM173.35 127.63C173.41 127.86 173.46 128.09 173.5 128.31C174.04 131.25 174.42 133.68 174.7 135.53L172.65 135.99C171.584 136.199 170.479 136.003 169.55 135.44C168.889 135.012 168.369 134.398 168.055 133.675C167.742 132.953 167.649 132.154 167.787 131.378C167.926 130.603 168.291 129.886 168.836 129.317C169.381 128.748 170.081 128.353 170.85 128.18L173.35 127.63ZM168.92 108.95C169.051 109.462 169.184 109.983 169.32 110.513L169.323 110.521C169.829 112.498 170.368 114.599 170.92 116.78L168.54 117.31C167.475 117.525 166.369 117.333 165.44 116.77C164.547 116.199 163.917 115.296 163.69 114.26C163.567 113.743 163.55 113.206 163.637 112.681C163.725 112.156 163.916 111.655 164.2 111.205C164.484 110.755 164.855 110.366 165.291 110.062C165.727 109.757 166.22 109.542 166.74 109.43L168.92 108.95ZM139.44 137.57C139.356 137.443 139.236 137.344 139.095 137.287C138.954 137.23 138.798 137.217 138.65 137.25L10.9297 165.44C9.0327 165.883 7.03855 165.592 5.34716 164.625C3.65577 163.659 2.39217 162.089 1.80973 160.23C1.50371 159.201 1.42392 158.117 1.57581 157.054C1.7277 155.991 2.10769 154.973 2.68973 154.07C3.76216 152.4 5.44545 151.216 7.37973 150.77L135.38 122.54C135.53 122.508 135.666 122.431 135.77 122.318C135.874 122.205 135.94 122.062 135.96 121.91C136.419 118.598 137.593 115.425 139.4 112.61C141.015 110.052 143.126 107.843 145.607 106.112C148.089 104.381 150.891 103.163 153.85 102.53L159.85 101.25H160L163.32 100.53C163.434 100.531 163.546 100.507 163.65 100.46L165.75 99.9503C166.05 100.393 166.305 100.866 166.51 101.36C166.877 102.16 167.184 102.985 167.43 103.83V104.01L167.457 104.099C167.78 105.136 168.138 106.285 168.43 107.5L166.29 107.96C165.579 108.121 164.906 108.42 164.31 108.841C163.715 109.262 163.208 109.795 162.819 110.412C162.43 111.029 162.166 111.716 162.043 112.435C161.919 113.153 161.939 113.889 162.1 114.6C162.255 115.308 162.55 115.978 162.967 116.57C163.385 117.162 163.916 117.666 164.53 118.05C165.79 118.797 167.281 119.057 168.72 118.78L171.14 118.24C171.79 120.78 172.35 123.38 172.88 125.91V126.12L170.36 126.68C169.649 126.834 168.976 127.129 168.38 127.546C167.784 127.963 167.278 128.495 166.89 129.11C166.5 129.716 166.234 130.393 166.109 131.102C165.984 131.811 166.001 132.538 166.16 133.24C166.484 134.663 167.358 135.899 168.59 136.68C169.493 137.234 170.531 137.528 171.59 137.53C171.976 137.528 172.36 137.491 172.74 137.42L174.69 136.99C175.123 139.701 175.237 142.453 175.03 145.19L172.62 145.71C172.53 145.695 172.439 145.695 172.35 145.71C172.25 145.732 172.154 145.773 172.07 145.83L163.7 147.65C159.115 148.612 154.347 148.168 150.019 146.377C145.691 144.585 142.004 141.53 139.44 137.61V137.57ZM145.8 145.87C151.282 149.311 157.891 150.477 164.22 149.12L172.22 147.37C172.392 147.662 172.6 147.931 172.84 148.17C173.616 148.974 174.474 149.695 175.4 150.32C175.387 150.486 175.437 150.65 175.54 150.78C178.75 154.95 186.93 159.95 187.45 160.23L187.59 160.31C188.473 160.819 189.462 161.116 190.48 161.18C190.892 161.19 191.301 161.105 191.676 160.931C192.05 160.758 192.38 160.501 192.64 160.18C192.906 159.884 193.107 159.535 193.23 159.156C193.352 158.777 193.393 158.376 193.35 157.98C193.242 157.447 193.025 156.943 192.712 156.498C192.398 156.054 191.996 155.68 191.53 155.4C191.31 155.23 190.83 154.91 190.18 154.48C187.655 152.87 185.221 151.12 182.89 149.24C183.062 148.983 183.212 148.712 183.34 148.43C184.41 149.228 185.696 149.684 187.03 149.74C187.366 149.744 187.701 149.71 188.03 149.64C188.506 149.534 188.959 149.344 189.37 149.08C190.347 148.527 191.106 147.655 191.52 146.61C192.607 147.432 193.918 147.902 195.28 147.96C195.616 147.964 195.951 147.93 196.28 147.86C196.756 147.756 197.21 147.566 197.62 147.3C198.075 147.039 198.481 146.701 198.82 146.3C201.12 157.51 209.18 160.44 212.66 161.69C215.79 162.78 227.52 167.23 229.57 168.42C230.833 169.233 232.261 169.755 233.75 169.95C234.051 169.964 234.352 169.916 234.634 169.809C234.915 169.702 235.173 169.54 235.39 169.33C235.693 169.03 235.933 168.671 236.095 168.276C236.257 167.881 236.339 167.457 236.334 167.03C236.329 166.603 236.239 166.181 236.068 165.789C235.897 165.398 235.65 165.044 235.34 164.75C231.843 160.765 224 158.517 219.283 157.166L219.23 157.15L218.977 157.077C217.955 156.778 217.08 156.523 216.47 156.31L215.6 156.01C212.6 155.01 207.6 153.33 205.19 145.72C205.392 145.629 205.589 145.525 205.78 145.41C207.54 144.41 208.47 142.51 208.78 139.32L215.86 137.74C217.273 137.415 218.504 136.55 219.288 135.33C220.073 134.11 220.35 132.632 220.06 131.21C220.139 131.302 220.24 131.373 220.354 131.417C220.467 131.46 220.589 131.475 220.71 131.46C224.82 131.302 228.936 131.359 233.04 131.63C240.323 132.237 247.57 133.225 254.75 134.59L242 149.23C241.926 149.275 241.859 149.329 241.8 149.39C241.746 149.456 241.706 149.53 241.68 149.61L241.31 150.03L241.88 150.52C242.34 150.92 242.81 151.3 243.29 151.67L248.41 156.1C254.171 161.099 261.679 163.609 269.288 163.081C276.897 162.552 283.985 159.028 289 153.28C290.707 151.314 292.143 149.128 293.27 146.78C308.087 153.391 321.656 162.504 333.38 173.72C326.63 180.92 322.53 190.28 320.59 195.56C316.865 189.195 311.396 184.028 304.83 180.67C293.57 175.08 280.06 170.67 262.08 188.98C261.89 189.17 261.7 189.38 261.52 189.58C253.469 184.216 244.76 179.911 235.61 176.77C235.516 176.734 235.417 176.716 235.316 176.718C235.216 176.721 235.117 176.743 235.026 176.785C234.935 176.826 234.853 176.885 234.784 176.959C234.716 177.032 234.664 177.119 234.63 177.213C234.595 177.307 234.581 177.407 234.586 177.508C234.591 177.608 234.616 177.706 234.66 177.796C234.704 177.886 234.766 177.967 234.841 178.033C234.917 178.099 235.005 178.149 235.1 178.18C244.055 181.261 252.583 185.464 260.48 190.69C259.56 191.69 258.61 192.77 257.61 193.93C256.812 194.873 256.019 195.877 255.207 196.904L255.204 196.907L255.203 196.908C254.785 197.438 254.361 197.973 253.93 198.51L253.39 199.2V199.25C245.18 194.395 236.372 190.63 227.19 188.05C227.096 188.021 226.997 188.012 226.899 188.022C226.802 188.032 226.707 188.062 226.621 188.11C226.535 188.157 226.46 188.222 226.4 188.299C226.339 188.377 226.295 188.465 226.27 188.56C226.241 188.655 226.231 188.754 226.241 188.853C226.251 188.951 226.281 189.046 226.328 189.133C226.376 189.22 226.44 189.296 226.518 189.357C226.595 189.419 226.684 189.464 226.78 189.49C235.783 192.038 244.421 195.735 252.48 200.49C251.66 201.6 250.85 202.73 250.01 203.92L249.36 204.83C248.743 205.712 248.118 206.664 247.492 207.617L247.24 208C239.476 203.597 231.023 200.538 222.24 198.95C222.045 198.915 221.844 198.959 221.681 199.071C221.518 199.183 221.406 199.356 221.37 199.55C221.337 199.747 221.383 199.949 221.497 200.114C221.611 200.278 221.784 200.391 221.98 200.43C230.552 201.98 238.801 204.966 246.38 209.26L245.69 210.32C244.45 212.19 243.29 214.13 242.06 216.19L241.39 217.3L240.61 218.64C236.792 216.06 232.482 214.3 227.95 213.47C227.754 213.442 227.554 213.492 227.395 213.61C227.235 213.728 227.129 213.904 227.1 214.1C227.083 214.197 227.085 214.296 227.108 214.392C227.13 214.488 227.171 214.578 227.229 214.657C227.287 214.737 227.36 214.803 227.444 214.854C227.529 214.904 227.622 214.937 227.72 214.95C232.068 215.76 236.202 217.462 239.86 219.95C238.81 221.76 237.59 223.88 236.86 225.24C236.77 225.413 236.751 225.614 236.807 225.801C236.863 225.988 236.99 226.145 237.16 226.24C237.271 226.298 237.394 226.329 237.52 226.33C237.655 226.329 237.788 226.291 237.904 226.22C238.02 226.15 238.115 226.05 238.18 225.93C239.32 223.81 241.68 219.77 242.68 218.06L243.35 216.94C243.672 216.413 243.989 215.885 244.303 215.361L244.305 215.359L244.306 215.357L244.307 215.355L244.308 215.354L244.308 215.353C245.185 213.893 246.046 212.461 246.95 211.13C247.539 210.263 248.122 209.37 248.699 208.485L248.7 208.484C249.326 207.524 249.946 206.575 250.56 205.68L251.2 204.77C252.34 203.15 253.42 201.62 254.57 200.14L255.1 199.46L255.357 199.132C256.522 197.642 257.631 196.225 258.74 194.92C260.29 193.13 261.74 191.52 263.15 190.04C280.42 172.44 293.37 176.68 304.15 182.04C321.96 190.84 326.15 212.39 327 219.04C323.959 215.424 320.195 212.484 315.95 210.41C311.85 194.41 295.86 186.83 286.26 187.69C266.38 189.47 248.83 224.12 240.4 240.78C240.355 240.868 240.328 240.963 240.321 241.06C240.313 241.158 240.325 241.256 240.356 241.349C240.387 241.442 240.435 241.528 240.5 241.602C240.564 241.676 240.642 241.737 240.73 241.78C240.834 241.838 240.951 241.869 241.07 241.87C241.21 241.871 241.347 241.832 241.466 241.757C241.584 241.683 241.679 241.577 241.74 241.45L241.745 241.441C250.056 225.027 267.343 190.89 286.4 189.18C295.21 188.38 309.8 195.18 314.16 209.58C310.455 207.98 306.57 206.835 302.59 206.17C301.75 206.02 300.9 205.9 300.06 205.8C298.418 203.902 296.316 202.458 293.955 201.607C291.595 200.756 289.055 200.526 286.58 200.94C276.97 202.94 272.82 211.51 272.23 212.84C269.98 214.405 267.854 216.14 265.87 218.03C257.1 226.38 251.17 237.24 247.75 244.89C245.662 246.495 243.659 248.207 241.75 250.02C239.36 252.22 237.29 254.12 235.38 254.87C231.559 256.309 227.616 257.4 223.6 258.13L222.79 258.31L222.98 257.87C223.068 257.668 223.156 257.466 223.244 257.265C223.654 256.326 224.055 255.407 224.41 254.5L225.1 252.96C226.21 250.46 227.29 248.06 228.36 245.72C229.31 243.65 230.26 241.66 231.26 239.59L231.35 239.4C231.997 238.038 232.716 236.525 233.49 235.12C233.651 234.827 233.893 234.309 234.171 233.711L234.172 233.71C234.273 233.492 234.38 233.263 234.49 233.03C234.682 232.623 234.849 232.243 234.992 231.919C235.154 231.551 235.284 231.256 235.38 231.08C235.437 230.994 235.476 230.896 235.494 230.794C235.511 230.692 235.508 230.587 235.483 230.487C235.458 230.386 235.413 230.291 235.35 230.209C235.286 230.127 235.207 230.058 235.116 230.008C235.025 229.959 234.925 229.928 234.821 229.919C234.718 229.909 234.614 229.922 234.516 229.955C234.417 229.988 234.327 230.041 234.25 230.111C234.173 230.181 234.112 230.266 234.07 230.36C233.934 230.6 233.746 231 233.523 231.472L233.522 231.475C233.383 231.769 233.231 232.091 233.07 232.42C232.834 232.903 232.639 233.357 232.48 233.728L232.48 233.729C232.356 234.019 232.253 234.258 232.17 234.42C231.35 235.901 230.589 237.509 229.887 238.993L229.86 239.05L229.05 240.73C221.664 229.64 211.184 220.965 198.91 215.78C180.91 208.08 161.28 210.65 157.44 211.26L153.19 202.61C165.009 199.963 177.219 199.549 189.19 201.39L193.94 202.39C198.148 203.533 202.253 205.028 206.21 206.86C207.61 207.5 214.78 210.91 219.34 214.86C221.69 216.94 224.48 219.74 226.51 221.78L227.62 222.9C227.76 223.041 227.951 223.12 228.15 223.12C228.348 223.12 228.539 223.041 228.68 222.9C228.82 222.76 228.899 222.569 228.899 222.37C228.899 222.172 228.82 221.981 228.68 221.84L227.57 220.72C225.57 218.67 222.72 215.85 220.33 213.72C215.61 209.6 208.27 206.12 206.85 205.46C202.786 203.585 198.571 202.056 194.25 200.89L189.46 199.89H189.3C197.744 198.354 206.381 198.182 214.88 199.38C215.077 199.409 215.278 199.359 215.439 199.241C215.6 199.124 215.708 198.947 215.74 198.75C215.768 198.554 215.718 198.355 215.6 198.195C215.482 198.036 215.306 197.93 215.11 197.9C205.72 196.45 193.11 197.01 185.82 199.21C185.706 199.249 185.604 199.314 185.52 199.4C183.28 199.15 181 198.97 178.64 198.86C169.865 198.547 161.085 199.343 152.51 201.23L150.56 197.23C153.72 195.43 174.4 184.38 204.06 186.14C204.259 186.152 204.454 186.085 204.603 185.952C204.752 185.82 204.843 185.634 204.855 185.435C204.867 185.236 204.799 185.041 204.667 184.892C204.535 184.743 204.349 184.652 204.15 184.64C174.39 182.88 153.5 193.84 149.89 195.88L144.89 185.62C149.949 183.047 155.222 180.919 160.65 179.26C174.708 174.885 189.346 172.659 204.07 172.66C212.929 172.789 221.728 174.135 230.22 176.66C230.313 176.691 230.411 176.704 230.509 176.696C230.607 176.689 230.703 176.662 230.79 176.617C230.878 176.573 230.956 176.511 231.019 176.436C231.082 176.361 231.13 176.274 231.16 176.18C231.191 176.086 231.203 175.987 231.196 175.889C231.189 175.79 231.162 175.694 231.117 175.605C231.073 175.517 231.011 175.438 230.936 175.374C230.861 175.31 230.774 175.261 230.68 175.23C222.038 172.645 213.079 171.275 204.06 171.16C189.166 171.161 174.358 173.417 160.14 177.85C154.659 179.521 149.335 181.67 144.23 184.27L138.83 173.27L129.49 154.27C134.751 151.166 140.198 148.387 145.8 145.95V145.87ZM339.16 179.63C355.73 198.1 364.54 219.63 364.67 242.03C364.526 242.522 364.419 243.023 364.35 243.53C360.73 265.55 351.742 286.339 338.18 304.06C312.06 337.74 271.8 354.82 218.52 354.82C119.96 354.82 87.3397 295.82 76.6797 260.64C75.4697 256.64 74.4497 252.59 73.6797 248.7C76.5897 245.58 79.1597 244.36 82.0597 244.7C90.2397 245.4 93.8197 258.65 96.2297 271.52C97.9797 280.74 99.5697 288.19 102.7 293.24C104.541 296.398 107.14 299.047 110.261 300.948C113.383 302.85 116.929 303.943 120.58 304.13C128.2 304.67 135.5 302.03 140.43 299.62H141.72C143.904 299.62 146.084 299.443 148.24 299.09C146.729 300.867 145.547 302.899 144.75 305.09C143.969 307.264 143.653 309.577 143.82 311.88V312.02C144.58 322.68 154 335.57 170.53 339.56C180.975 342.067 185.626 341.881 194.86 341.512L194.9 341.51L194.979 341.507C204.238 341.137 218.042 340.586 246.9 342.4C248.4 342.49 249.9 342.54 251.3 342.54C274.64 342.54 289.09 330.59 304.3 317.98L304.321 317.963C309.405 313.758 314.668 309.405 320.3 305.56C331.37 297.93 336.89 287.76 337.16 274.47C337.333 269.507 336.199 264.586 333.87 260.2V260.12C333.93 259.91 339.65 238.31 329.5 222.34C329.326 222.067 329.144 221.803 328.962 221.538C328.871 221.406 328.78 221.274 328.69 221.14C328.723 221.04 328.739 220.936 328.74 220.83C328.311 215.981 327.303 211.201 325.74 206.59C326.6 203.13 330.75 188.44 339.16 179.67V179.63ZM140.16 298.02L140.05 298.07C133.64 297.77 126.22 295.72 122.34 289.19C120.196 285.71 117.782 282.403 115.12 279.3L115.101 279.277C109.82 272.828 105.651 267.737 106.79 256.98C108.2 244.19 127.59 232.48 141.86 232.24C142.594 232.227 143.328 232.254 144.06 232.32C157.39 233.37 168.72 246.32 172.27 264.55C173.34 270 172.92 279.83 171.46 283.47L166.23 286.47C159.12 290.52 153.75 293.59 149.98 297.2C147.031 297.887 144.006 298.19 140.98 298.1C140.863 298.017 140.724 297.968 140.581 297.961C140.437 297.954 140.294 297.989 140.17 298.06L140.16 298.02ZM155.53 223.02C163.436 219.906 167.197 221.834 171.945 224.268L171.97 224.28L173.39 225C175.994 226.231 178.799 226.983 181.67 227.22C185.28 227.71 188.67 228.22 192.08 231.56C194.55 234.03 202.51 255.28 195.83 266.48C195.52 267.02 194.01 269.32 193.61 269.89C193.555 269.968 193.517 270.057 193.5 270.15C190.06 272.084 186.563 274.19 183.01 276.47C179.55 278.69 176.36 280.62 173.38 282.37C174.556 276.411 174.678 270.292 173.74 264.29C170.07 245.4 158.19 231.96 144.21 230.85H143.51C146.82 227.07 151.75 224.53 155.54 223.03L155.53 223.02ZM302.36 207.57C314.28 209.64 322.98 214.88 328.23 223.13C336.59 236.27 333.78 253.46 332.74 258.35C330.667 255.21 327.959 252.539 324.79 250.51C325.51 247.11 329.18 225.71 309.39 217.75C284.39 207.7 267.03 231.88 263.39 237.66C258.715 238.597 254.267 240.431 250.29 243.06C267.21 207.28 290.09 205.41 302.37 207.58L302.36 207.57ZM274.91 211.06C276.75 208.18 280.57 203.61 286.91 202.32C288.853 202.016 290.839 202.143 292.726 202.695C294.614 203.246 296.356 204.208 297.83 205.51C289.802 204.956 281.8 206.898 274.92 211.07L274.91 211.06ZM314.85 237.41C314.807 237.217 314.689 237.049 314.522 236.942C314.355 236.835 314.153 236.799 313.96 236.84C313.862 236.859 313.77 236.898 313.688 236.953C313.606 237.008 313.535 237.08 313.481 237.163C313.427 237.246 313.39 237.339 313.373 237.436C313.356 237.534 313.358 237.634 313.38 237.73C313.924 240.47 313.924 243.29 313.38 246.03C313.365 246.113 313.365 246.198 313.38 246.28C311.86 246.11 310.38 246.05 308.8 245.99C308.111 245.99 307.388 245.949 306.641 245.906C306.488 245.898 306.334 245.889 306.18 245.88C306.66 240.97 304.07 237.14 299.78 236.5C293.9 235.61 288.97 239.61 287.78 240.71C285.248 239.302 282.527 238.265 279.7 237.63C281.7 234.89 290.98 223.63 303.7 227.32C306.238 227.987 308.527 229.377 310.29 231.32C310.352 231.404 310.431 231.473 310.522 231.524C310.613 231.575 310.713 231.606 310.817 231.617C310.921 231.627 311.025 231.615 311.124 231.582C311.223 231.55 311.314 231.497 311.392 231.427C311.469 231.358 311.531 231.272 311.574 231.178C311.616 231.083 311.639 230.98 311.639 230.876C311.64 230.771 311.619 230.668 311.578 230.573C311.537 230.477 311.476 230.391 311.4 230.32C309.442 228.182 306.912 226.652 304.11 225.91C289.2 221.61 278.86 236.22 278.11 237.37C277.19 237.22 276.2 237.1 275.11 237.02C271.881 236.779 268.635 236.89 265.43 237.35C270.23 230.29 286.35 210.13 308.9 219.18C317.35 222.58 322.35 228.88 323.75 237.9C324.32 241.827 324.235 245.821 323.5 249.72C322.94 249.4 322.36 249.09 321.77 248.79C319.593 247.699 317.269 246.935 314.87 246.52V246.41C315.471 243.443 315.467 240.386 314.86 237.42L314.85 237.41ZM304.75 245.78C302.302 245.595 299.871 245.224 297.48 244.67C294.594 243.999 291.817 242.925 289.23 241.48C290.8 240.19 294.94 237.29 299.62 238C303.03 238.51 305.1 241.69 304.75 245.78ZM263.69 239.12C263.854 239.145 264.022 239.117 264.17 239.04C267.739 238.4 271.374 238.215 274.99 238.49C279.532 238.772 283.94 240.144 287.84 242.49C290.743 244.168 293.876 245.411 297.14 246.18C300.954 247.018 304.845 247.461 308.75 247.5L308.788 247.502C312.98 247.661 316.304 247.787 321.04 250.11C330.57 254.8 335.88 263.66 335.63 274.43C335.36 287.43 330.21 296.89 319.42 304.33C313.75 308.21 308.42 312.59 303.35 316.82C287.4 330.01 272.35 342.45 246.95 340.9C231.3 339.9 220.04 339.63 211.54 339.63C204.289 339.63 199.053 339.84 194.806 340.01L194.79 340.01C185.68 340.38 181.1 340.56 170.79 338.1C154.96 334.28 145.95 322.03 145.23 311.96V311.83C145.073 309.721 145.359 307.602 146.07 305.61C148.81 298.141 155.629 294.251 166.918 287.811L166.919 287.811L166.92 287.81L167.081 287.718L167.081 287.718C171.931 284.951 177.41 281.825 183.77 277.74C193.447 271.345 203.808 266.049 214.66 261.95C217.703 260.945 220.81 260.143 223.96 259.55C228.05 258.797 232.066 257.682 235.96 256.22C238.12 255.36 240.28 253.38 242.78 251.08C247.55 246.68 253.61 241.11 263.64 239.12H263.69ZM196.26 268.65C196.65 268.04 197 267.48 197.14 267.25C200.31 261.92 200.4 254.39 199.26 247.5C201.96 249.04 208.73 253.56 211.43 261.55C206.237 263.615 201.172 265.986 196.26 268.65ZM221.03 258.65C218.699 259.137 216.402 259.768 214.15 260.54L212.84 261.04C209.44 251.04 200.35 246.33 198.92 245.64C198.039 240.844 196.431 236.21 194.15 231.9C204.77 235.9 212.92 242.17 216.72 249.49C216.784 249.612 216.88 249.714 216.999 249.784C217.117 249.855 217.252 249.892 217.39 249.89C217.508 249.892 217.625 249.865 217.73 249.81C217.903 249.719 218.034 249.563 218.094 249.376C218.154 249.189 218.138 248.986 218.05 248.81C213.72 240.48 204.54 233.67 192.21 229.64H192.15C188.73 226.73 185.25 226.24 181.88 225.78C179.178 225.563 176.537 224.865 174.08 223.72L172.66 223C169.28 221.26 166.22 219.69 161.82 220L158.19 212.61C162.8 211.92 181.32 209.81 198.38 217.1C210.707 222.249 221.171 231.033 228.38 242.28L227.08 245.06C226.213 246.965 225.346 248.902 224.452 250.898L224.414 250.983C224.217 251.422 224.019 251.865 223.82 252.31L223.12 253.89C222.748 254.807 222.356 255.718 221.954 256.649C221.87 256.845 221.785 257.042 221.7 257.24L221.03 258.65ZM127.75 154.07C127.758 154.148 127.782 154.223 127.82 154.29L127.89 154.36L133.45 165.7L137.45 173.85L151.35 202.14V202.19C151.381 202.301 151.435 202.403 151.51 202.49L156.17 211.97C156.165 212.027 156.165 212.084 156.17 212.14C156.188 212.24 156.227 212.335 156.284 212.42C156.34 212.504 156.414 212.576 156.5 212.63L160.19 220.14C158.391 220.445 156.631 220.945 154.94 221.63C151.844 222.843 148.906 224.424 146.19 226.34C141.195 226.509 136.212 225.756 131.49 224.12C126.407 222.471 121.711 219.81 117.683 216.3C113.655 212.789 110.378 208.5 108.05 203.69C103.403 194.215 102.654 183.296 105.963 173.274C109.271 163.253 116.375 154.926 125.75 150.08L127.75 154.07ZM112.67 156.36L116.97 154.24C109.969 160.29 105.169 168.488 103.32 177.554C101.471 186.619 102.677 196.042 106.75 204.35C109.165 209.34 112.565 213.789 116.744 217.431C120.924 221.072 125.797 223.831 131.07 225.54C135.341 227.006 139.815 227.792 144.33 227.87C143.32 228.751 142.399 229.729 141.58 230.79C137.91 230.948 134.281 231.621 130.8 232.79C130.753 232.785 130.706 232.785 130.66 232.79C121.542 232.843 112.676 229.802 105.512 224.162C98.3471 218.523 93.3078 210.62 91.2177 201.745C89.1276 192.87 90.1103 183.548 94.0052 175.304C97.9001 167.06 104.477 160.382 112.66 156.36H112.67ZM92.9597 210.95C96.2005 217.434 101.057 222.973 107.062 227.033C113.066 231.093 120.016 233.538 127.24 234.13C116.58 238.52 106.41 246.82 105.31 256.85C104.1 268.24 108.67 273.85 113.97 280.28C116.586 283.324 118.957 286.571 121.06 289.99C122.485 292.356 124.444 294.356 126.78 295.83C118.57 296.91 113.54 295.03 110.15 289.69C107.73 285.86 105.53 279.02 103.96 270.41L103.955 270.386C101.266 255.882 98.2123 239.409 85.0597 236.41L84.947 236.388C84.1719 236.235 83.3699 236.076 82.5497 235.99C78.9406 235.646 75.3319 236.651 72.4197 238.81C73.329 221.743 78.9846 205.268 88.7497 191.24C88.5134 198.056 89.9593 204.826 92.9597 210.95ZM66.3397 365.95C68.0897 381.11 66.4297 391.19 61.4097 395.9C59.4097 397.75 56.3397 400.21 52.5097 400.21C52.0272 400.24 51.5456 400.138 51.1161 399.917C50.6865 399.695 50.325 399.361 50.0697 398.95C49.8925 398.617 49.7933 398.247 49.7794 397.87C49.7656 397.492 49.8375 397.116 49.9897 396.77C50.7339 395.868 51.6791 395.152 52.7497 394.68C54.5121 393.796 56.0901 392.584 57.3997 391.11L57.4015 391.108C59.6414 388.448 62.7092 384.805 60.5597 366.41C52.5597 298.56 56.0997 255.62 70.8297 242.22L70.8298 242.22C71.2698 241.78 71.7598 241.29 72.2497 240.89C73.6174 239.655 75.2267 238.718 76.9757 238.138C78.7247 237.558 80.5752 237.348 82.4097 237.52C83.197 237.621 83.9781 237.764 84.7497 237.95C96.9267 240.74 99.8783 256.662 102.488 270.74L102.49 270.75C104.09 279.53 106.36 286.55 108.89 290.54C112.83 296.76 118.96 298.78 128.77 297.09H128.87C131.336 298.264 133.972 299.043 136.68 299.4L137.27 299.46C129.37 302.77 113.06 307.16 103.95 292.53C100.95 287.7 99.3997 280.38 97.6697 271.32C95.0297 257.22 91.3197 244.07 82.1697 243.32C78.3397 242.92 74.9597 244.79 71.1697 249.47C58.2197 269.66 61.3997 323.95 66.3397 365.95ZM218.52 401.33C200.141 401.305 181.991 397.256 165.344 389.468C148.698 381.68 133.958 370.342 122.16 356.25C149.007 379.384 183.285 392.081 218.725 392.016C254.164 391.952 288.397 379.132 315.16 355.9C303.366 370.093 288.596 381.52 271.896 389.371C255.195 397.221 236.973 401.304 218.52 401.33ZM218.52 390.52C180.84 390.526 144.615 375.975 117.41 349.906C90.204 323.837 74.1212 288.266 72.5197 250.62C73.2797 254.07 74.1897 257.62 75.2497 261.12C86.0397 296.69 119 356.37 218.53 356.37C272.3 356.37 312.96 339.09 339.38 305.03C351.728 288.912 360.333 270.248 364.57 250.39C361.39 328.19 297.1 390.52 218.52 390.52ZM370.75 355.69L370.754 355.703C370.939 356.236 371.476 357.788 371.01 358.69C370.907 358.888 370.766 359.064 370.594 359.207C370.422 359.349 370.223 359.456 370.01 359.52C369.36 359.632 368.693 359.547 368.092 359.277C367.491 359.006 366.986 358.561 366.64 358C361.42 351.48 364.05 322.39 374.47 271.55L374.86 269.64C377.86 255.32 380.86 233.56 378.58 211.24C376.82 193.99 373.32 177.33 359.78 172.24C354.63 170.34 349.34 170.87 344.07 173.82C332.83 180.14 326.86 197.27 324.89 204.07C323.976 201.691 322.896 199.379 321.66 197.15C323.37 192.24 327.58 181.95 334.84 174.37C334.945 174.337 335.041 174.279 335.12 174.2C335.198 174.122 335.256 174.026 335.29 173.92C337.403 171.739 339.813 169.867 342.45 168.36C345.212 166.819 348.259 165.857 351.406 165.533C354.552 165.21 357.732 165.532 360.75 166.48C373.26 170.2 381.14 185.48 383.54 210.77C385.62 232.24 383.14 256.15 379.76 270.31C372 302.86 366.22 343.78 370.75 355.69ZM221.83 186.75C218.14 185.858 214.39 185.233 210.61 184.88C210.509 184.864 210.406 184.869 210.307 184.894C210.208 184.919 210.115 184.964 210.035 185.027C209.954 185.089 209.886 185.167 209.837 185.256C209.787 185.346 209.756 185.444 209.746 185.546C209.736 185.647 209.746 185.75 209.777 185.847C209.808 185.945 209.858 186.035 209.925 186.112C209.992 186.189 210.074 186.252 210.166 186.296C210.258 186.341 210.358 186.366 210.46 186.37C214.165 186.726 217.841 187.341 221.46 188.21H221.63C221.799 188.208 221.962 188.15 222.094 188.045C222.227 187.94 222.32 187.794 222.36 187.63C222.4 187.444 222.368 187.249 222.269 187.085C222.171 186.922 222.014 186.802 221.83 186.75ZM258.53 305.36C261.089 305.991 263.715 306.303 266.35 306.29C270.965 306.268 275.545 305.478 279.9 303.95C295.21 298.63 304.77 285.95 301.22 275.76C297.67 265.57 282.32 261.55 267.01 266.87C251.7 272.19 242.14 284.87 245.7 295.06C247.44 300.03 251.99 303.7 258.53 305.36ZM267.53 268.25C271.725 266.763 276.139 265.986 280.59 265.95C289.89 265.95 297.53 269.67 299.8 276.2C303.08 285.65 293.94 297.44 279.41 302.49C272.32 304.95 265.03 305.49 258.89 303.89C252.75 302.29 248.68 299.04 247.11 294.52C243.83 285.09 252.98 273.3 267.5 268.25H267.53ZM276.75 298.07C273.441 299.252 269.955 299.864 266.44 299.88C260.69 299.88 256.89 298.54 254.46 295.72C254.328 295.568 254.261 295.369 254.275 295.167C254.289 294.966 254.383 294.778 254.535 294.645C254.688 294.513 254.887 294.446 255.088 294.46C255.29 294.474 255.478 294.568 255.61 294.72C257.73 297.27 261.06 298.4 266.41 298.4C269.762 298.388 273.086 297.803 276.24 296.67C277.897 296.072 279.511 295.36 281.07 294.54C281.245 294.451 281.447 294.434 281.633 294.492C281.82 294.55 281.977 294.678 282.07 294.85C282.156 295.026 282.17 295.228 282.111 295.414C282.051 295.601 281.922 295.757 281.75 295.85C280.136 296.702 278.465 297.443 276.75 298.07ZM166.55 280.95C166.515 281.145 166.559 281.346 166.671 281.509C166.783 281.672 166.956 281.784 167.15 281.82H167.29C167.465 281.819 167.634 281.758 167.769 281.647C167.903 281.536 167.996 281.381 168.03 281.21C170.86 266.05 165.91 255.76 165.7 255.33C165.603 255.171 165.449 255.053 165.269 255.001C165.09 254.949 164.897 254.966 164.729 255.049C164.561 255.132 164.431 255.274 164.362 255.448C164.294 255.622 164.293 255.816 164.36 255.99C164.41 256.08 169.29 266.28 166.55 280.95ZM154.44 229.35C154.325 229.417 154.194 229.451 154.06 229.45C153.898 229.448 153.74 229.393 153.612 229.293C153.483 229.194 153.391 229.055 153.348 228.898C153.305 228.741 153.314 228.575 153.374 228.424C153.434 228.273 153.542 228.145 153.68 228.06C157.54 225.962 161.916 225.001 166.3 225.29C166.499 225.308 166.682 225.403 166.811 225.554C166.94 225.706 167.004 225.902 166.99 226.1C166.973 226.298 166.878 226.482 166.726 226.611C166.575 226.74 166.379 226.804 166.18 226.79C162.106 226.546 158.043 227.432 154.44 229.35ZM279 354.35C272.753 356.563 266.349 358.301 259.84 359.55C259.651 359.58 259.481 359.682 259.364 359.833C259.247 359.985 259.193 360.176 259.212 360.366C259.231 360.557 259.322 360.733 259.467 360.858C259.612 360.983 259.799 361.048 259.99 361.04H260.14C266.733 359.777 273.219 358.008 279.54 355.75C279.642 355.723 279.737 355.675 279.819 355.608C279.9 355.542 279.967 355.459 280.015 355.365C280.062 355.271 280.09 355.168 280.095 355.063C280.1 354.958 280.083 354.852 280.045 354.754C280.007 354.656 279.948 354.567 279.874 354.493C279.799 354.419 279.709 354.361 279.61 354.324C279.512 354.287 279.407 354.271 279.302 354.277C279.196 354.283 279.094 354.312 279 354.36V354.35ZM223.02 363.65C229.17 363.51 235.47 363.07 241.75 362.37L241.72 362.4C241.915 362.382 242.11 362.441 242.262 362.565C242.414 362.689 242.512 362.867 242.534 363.062C242.556 363.257 242.501 363.453 242.381 363.608C242.26 363.762 242.084 363.864 241.89 363.89C235.57 364.6 229.22 365.03 223.02 365.18C221.151 365.25 219.301 365.25 217.502 365.25H217.5C183.7 365.25 163.24 357.15 163.02 357.06C162.926 357.023 162.841 356.967 162.769 356.896C162.697 356.826 162.64 356.741 162.602 356.647C162.564 356.554 162.545 356.454 162.546 356.353C162.547 356.252 162.569 356.153 162.61 356.06C162.646 355.966 162.701 355.879 162.771 355.807C162.842 355.734 162.927 355.677 163.021 355.638C163.115 355.6 163.215 355.581 163.316 355.583C163.418 355.585 163.518 355.608 163.61 355.65C163.615 355.652 163.631 355.658 163.659 355.669C164.854 356.126 187.095 364.628 223.02 363.65ZM357.18 242.11C357.181 242.207 357.202 242.303 357.24 242.393C357.279 242.482 357.334 242.563 357.404 242.631C357.473 242.698 357.556 242.752 357.646 242.788C357.736 242.824 357.833 242.842 357.93 242.84C358.029 242.84 358.127 242.821 358.218 242.782C358.309 242.744 358.391 242.687 358.46 242.616C358.529 242.546 358.584 242.462 358.62 242.37C358.656 242.277 358.673 242.179 358.67 242.08C358.19 216.49 344.47 196.6 344.33 196.41C344.217 196.248 344.045 196.138 343.851 196.103C343.657 196.069 343.457 196.113 343.295 196.225C343.133 196.338 343.023 196.51 342.988 196.704C342.953 196.899 342.997 197.098 343.11 197.26C343.25 197.46 356.75 216.95 357.18 242.11ZM87.7265 207.666C87.9134 207.599 88.1192 207.608 88.2999 207.69C88.4812 207.777 88.6209 207.932 88.6884 208.121C88.7558 208.31 88.7456 208.518 88.6599 208.7C85.3362 215.836 83.0755 223.419 81.9499 231.21C81.9301 231.395 81.8424 231.566 81.7038 231.689C81.5653 231.813 81.3857 231.881 81.1999 231.88H81.1199C80.9223 231.858 80.7418 231.757 80.6181 231.602C80.4943 231.446 80.4374 231.248 80.4599 231.05C81.6027 223.09 83.9073 215.341 87.2999 208.05C87.3865 207.871 87.5396 207.734 87.7265 207.666ZM115.54 178.6C115.602 178.728 115.698 178.836 115.818 178.913C115.938 178.989 116.078 179.029 116.22 179.03C116.33 179.032 116.44 179.008 116.54 178.96L130.66 172.26C130.84 172.175 130.979 172.022 131.047 171.835C131.114 171.647 131.105 171.44 131.02 171.26C130.935 171.08 130.782 170.941 130.594 170.873C130.407 170.806 130.2 170.815 130.02 170.9L115.9 177.6C115.81 177.642 115.73 177.701 115.664 177.774C115.597 177.847 115.546 177.932 115.512 178.025C115.479 178.118 115.464 178.217 115.469 178.316C115.473 178.414 115.498 178.511 115.54 178.6ZM130.419 209.813C130.298 209.737 130.202 209.628 130.14 209.5C130.057 209.32 130.049 209.114 130.116 208.927C130.184 208.74 130.321 208.587 130.5 208.5L144.7 201.72C144.881 201.638 145.087 201.629 145.273 201.696C145.46 201.764 145.614 201.901 145.7 202.08C145.742 202.169 145.766 202.266 145.771 202.365C145.776 202.463 145.761 202.562 145.728 202.655C145.694 202.748 145.643 202.833 145.576 202.906C145.51 202.979 145.43 203.038 145.34 203.08L131.14 209.85C131.041 209.901 130.932 209.929 130.82 209.93C130.678 209.929 130.539 209.889 130.419 209.813ZM117.4 197.08C117.459 197.207 117.554 197.314 117.673 197.389C117.792 197.463 117.929 197.502 118.07 197.5C118.183 197.501 118.296 197.477 118.4 197.43L138.81 187.59C138.988 187.504 139.126 187.35 139.191 187.163C139.257 186.975 139.246 186.769 139.16 186.59C139.118 186.501 139.059 186.42 138.985 186.354C138.912 186.288 138.827 186.237 138.733 186.204C138.64 186.172 138.541 186.158 138.443 186.164C138.344 186.17 138.248 186.196 138.16 186.24L117.75 196.08C117.66 196.122 117.58 196.181 117.514 196.254C117.447 196.327 117.396 196.413 117.364 196.506C117.331 196.6 117.318 196.698 117.324 196.797C117.33 196.895 117.356 196.992 117.4 197.08ZM140.19 120.55C141.649 115.2 144.808 110.469 149.19 107.07L149.2 107.05C149.363 106.936 149.565 106.892 149.761 106.926C149.957 106.961 150.131 107.072 150.245 107.235C150.359 107.398 150.404 107.6 150.369 107.796C150.334 107.992 150.223 108.166 150.06 108.28C145.983 111.497 143.034 115.927 141.64 120.93C141.598 121.089 141.505 121.229 141.374 121.328C141.244 121.428 141.084 121.481 140.92 121.48C140.854 121.491 140.787 121.491 140.72 121.48C140.527 121.426 140.363 121.299 140.264 121.124C140.164 120.95 140.138 120.744 140.19 120.55Z" fill="#323232"></path></svg> 